%TF.GenerationSoftware,KiCad,Pcbnew,8.0.5*%
%TF.CreationDate,2024-12-11T22:42:58-06:00*%
%TF.ProjectId,4011MS2,34303131-4d53-4322-9e6b-696361645f70,1.0*%
%TF.SameCoordinates,Original*%
%TF.FileFunction,Soldermask,Top*%
%TF.FilePolarity,Negative*%
%FSLAX46Y46*%
G04 Gerber Fmt 4.6, Leading zero omitted, Abs format (unit mm)*
G04 Created by KiCad (PCBNEW 8.0.5) date 2024-12-11 22:42:58*
%MOMM*%
%LPD*%
G01*
G04 APERTURE LIST*
G04 Aperture macros list*
%AMRoundRect*
0 Rectangle with rounded corners*
0 $1 Rounding radius*
0 $2 $3 $4 $5 $6 $7 $8 $9 X,Y pos of 4 corners*
0 Add a 4 corners polygon primitive as box body*
4,1,4,$2,$3,$4,$5,$6,$7,$8,$9,$2,$3,0*
0 Add four circle primitives for the rounded corners*
1,1,$1+$1,$2,$3*
1,1,$1+$1,$4,$5*
1,1,$1+$1,$6,$7*
1,1,$1+$1,$8,$9*
0 Add four rect primitives between the rounded corners*
20,1,$1+$1,$2,$3,$4,$5,0*
20,1,$1+$1,$4,$5,$6,$7,0*
20,1,$1+$1,$6,$7,$8,$9,0*
20,1,$1+$1,$8,$9,$2,$3,0*%
G04 Aperture macros list end*
%ADD10C,0.000000*%
%ADD11RoundRect,0.101600X-0.425000X-0.450000X0.425000X-0.450000X0.425000X0.450000X-0.425000X0.450000X0*%
%ADD12RoundRect,0.101600X-0.550000X-0.500000X0.550000X-0.500000X0.550000X0.500000X-0.550000X0.500000X0*%
%ADD13R,1.600000X0.300000*%
%ADD14RoundRect,0.101600X-0.300000X-0.675000X0.300000X-0.675000X0.300000X0.675000X-0.300000X0.675000X0*%
%ADD15RoundRect,0.101600X-0.600000X-1.000000X0.600000X-1.000000X0.600000X1.000000X-0.600000X1.000000X0*%
%ADD16C,4.199890*%
%ADD17C,1.422000*%
%ADD18RoundRect,0.101600X-0.200000X-0.550000X0.200000X-0.550000X0.200000X0.550000X-0.200000X0.550000X0*%
%ADD19RoundRect,0.101600X0.400000X-0.900000X0.400000X0.900000X-0.400000X0.900000X-0.400000X-0.900000X0*%
%ADD20C,2.082800*%
%ADD21RoundRect,0.101600X-0.330200X-0.635000X0.330200X-0.635000X0.330200X0.635000X-0.330200X0.635000X0*%
%ADD22RoundRect,0.180480X-0.421120X0.421120X-0.421120X-0.421120X0.421120X-0.421120X0.421120X0.421120X0*%
%ADD23RoundRect,0.101600X-0.200000X-0.375000X0.200000X-0.375000X0.200000X0.375000X-0.200000X0.375000X0*%
%ADD24RoundRect,0.101600X-0.375000X-0.175000X0.375000X-0.175000X0.375000X0.175000X-0.375000X0.175000X0*%
%ADD25RoundRect,0.101600X-0.400000X-0.600000X0.400000X-0.600000X0.400000X0.600000X-0.400000X0.600000X0*%
%ADD26RoundRect,0.375000X-0.625000X-0.375000X0.625000X-0.375000X0.625000X0.375000X-0.625000X0.375000X0*%
%ADD27RoundRect,0.500000X-0.500000X-1.400000X0.500000X-1.400000X0.500000X1.400000X-0.500000X1.400000X0*%
G04 APERTURE END LIST*
D10*
%TO.C,JP2*%
G36*
X137749800Y-105704300D02*
G01*
X137241800Y-105704300D01*
X137241800Y-105323300D01*
X137749800Y-105323300D01*
X137749800Y-105704300D01*
G37*
%TO.C,JP1*%
G36*
X137749800Y-102469100D02*
G01*
X137241800Y-102469100D01*
X137241800Y-102088100D01*
X137749800Y-102088100D01*
X137749800Y-102469100D01*
G37*
%TD*%
D11*
%TO.C,C9*%
X141070400Y-106788800D03*
X142230400Y-106788800D03*
%TD*%
D12*
%TO.C,C8*%
X136950400Y-84738800D03*
X138650400Y-84738800D03*
%TD*%
D13*
%TO.C,U11*%
X150800000Y-107396000D03*
X150800000Y-108046000D03*
X150800000Y-108696000D03*
X150800000Y-109346000D03*
X154200000Y-109346000D03*
X154200000Y-108696000D03*
X154200000Y-108046000D03*
X154200000Y-107396000D03*
%TD*%
D11*
%TO.C,C2*%
X141070400Y-99736400D03*
X142230400Y-99736400D03*
%TD*%
D14*
%TO.C,J6*%
X160465000Y-77336000D03*
X161465000Y-77336000D03*
X162465000Y-77336000D03*
X163465000Y-77336000D03*
D15*
X164765000Y-81011000D03*
X159165000Y-81011000D03*
%TD*%
D16*
%TO.C,H1*%
X120650000Y-68580000D03*
%TD*%
D17*
%TO.C,J10*%
X134620000Y-116840000D03*
X137160000Y-116840000D03*
X139700000Y-116840000D03*
X142240000Y-116840000D03*
X144780000Y-116840000D03*
X147320000Y-116840000D03*
X149860000Y-116840000D03*
X152400000Y-116840000D03*
%TD*%
D12*
%TO.C,R3*%
X136950400Y-92091200D03*
X138650400Y-92091200D03*
%TD*%
D16*
%TO.C,H4*%
X121158000Y-116840000D03*
%TD*%
D18*
%TO.C,U2*%
X118405000Y-111506000D03*
X119055000Y-111506000D03*
X119705000Y-111506000D03*
X120355000Y-111506000D03*
X120355000Y-107006000D03*
X119705000Y-107006000D03*
X119055000Y-107006000D03*
X118405000Y-107006000D03*
%TD*%
D12*
%TO.C,C4*%
X136950400Y-79837200D03*
X138650400Y-79837200D03*
%TD*%
D17*
%TO.C,J14*%
X152400000Y-68580000D03*
X154940000Y-68580000D03*
X157480000Y-68580000D03*
X160020000Y-68580000D03*
X162560000Y-68580000D03*
X165100000Y-68580000D03*
X167640000Y-68580000D03*
X170180000Y-68580000D03*
%TD*%
D16*
%TO.C,H2*%
X172466000Y-83312000D03*
%TD*%
D12*
%TO.C,C1*%
X136950400Y-77386400D03*
X138650400Y-77386400D03*
%TD*%
%TO.C,R6*%
X136950400Y-99443600D03*
X138650400Y-99443600D03*
%TD*%
D17*
%TO.C,J9*%
X125476000Y-116840000D03*
X128016000Y-116840000D03*
X130556000Y-116840000D03*
%TD*%
D19*
%TO.C,L1*%
X163015000Y-90311000D03*
X164815000Y-90311000D03*
%TD*%
D17*
%TO.C,J11*%
X157734000Y-117094000D03*
X160274000Y-117094000D03*
X162814000Y-117094000D03*
X165354000Y-117094000D03*
X167894000Y-117094000D03*
X170434000Y-117094000D03*
%TD*%
D20*
%TO.C,J2*%
X165064800Y-97830400D03*
%TD*%
D21*
%TO.C,JP2*%
X136975100Y-105513800D03*
X138016500Y-105513800D03*
%TD*%
D11*
%TO.C,C3*%
X141070400Y-102087200D03*
X142230400Y-102087200D03*
%TD*%
D22*
%TO.C,D1*%
X136675000Y-108208850D03*
X138429000Y-108208850D03*
%TD*%
D23*
%TO.C,U8*%
X156688500Y-108606000D03*
X157338500Y-108606000D03*
X157988500Y-108606000D03*
X157988500Y-106956000D03*
X156688500Y-106956000D03*
%TD*%
D12*
%TO.C,R1*%
X136950400Y-87189600D03*
X138650400Y-87189600D03*
%TD*%
D11*
%TO.C,C7*%
X141070400Y-104438000D03*
X142230400Y-104438000D03*
%TD*%
D20*
%TO.C,J17*%
X147320000Y-101600000D03*
X149860000Y-101600000D03*
X152400000Y-101600000D03*
X154940000Y-101600000D03*
%TD*%
D21*
%TO.C,JP1*%
X136975100Y-102278600D03*
X138016500Y-102278600D03*
%TD*%
D24*
%TO.C,U10*%
X161317000Y-104764000D03*
X161317000Y-105564000D03*
X161317000Y-106364000D03*
X161317000Y-107164000D03*
X161317000Y-107963999D03*
X161317000Y-108763999D03*
X161317000Y-109563999D03*
X163716999Y-109563999D03*
X163716999Y-108763999D03*
X163716999Y-107963999D03*
X163716999Y-107164000D03*
X163716999Y-106364000D03*
X163716999Y-105564000D03*
X163716999Y-104764000D03*
%TD*%
D12*
%TO.C,C5*%
X136950400Y-82288000D03*
X138650400Y-82288000D03*
%TD*%
D14*
%TO.C,J16*%
X160465000Y-83712600D03*
X161465000Y-83712600D03*
X162465000Y-83712600D03*
X163465000Y-83712600D03*
D15*
X164765000Y-87387600D03*
X159165000Y-87387600D03*
%TD*%
D17*
%TO.C,J12*%
X119888000Y-77470000D03*
X119888000Y-74930000D03*
X122428000Y-77470000D03*
X122428000Y-74930000D03*
X124968000Y-77470000D03*
X124968000Y-74930000D03*
%TD*%
D12*
%TO.C,R5*%
X136950400Y-96992800D03*
X138650400Y-96992800D03*
%TD*%
D25*
%TO.C,C6*%
X159190400Y-90236400D03*
X160990400Y-90236400D03*
%TD*%
D12*
%TO.C,R4*%
X136950400Y-94542000D03*
X138650400Y-94542000D03*
%TD*%
D16*
%TO.C,H3*%
X172720000Y-112522000D03*
%TD*%
D26*
%TO.C,U12*%
X146710000Y-88886000D03*
X146710000Y-91186000D03*
D27*
X153010000Y-91186000D03*
D26*
X146710000Y-93486000D03*
%TD*%
D20*
%TO.C,J1*%
X165064800Y-94950800D03*
%TD*%
D17*
%TO.C,J15*%
X170688000Y-88646000D03*
X173228000Y-88646000D03*
X170688000Y-91186000D03*
X173228000Y-91186000D03*
X170688000Y-93726000D03*
X173228000Y-93726000D03*
%TD*%
D11*
%TO.C,C10*%
X141070400Y-109139600D03*
X142230400Y-109139600D03*
%TD*%
D12*
%TO.C,R2*%
X136950400Y-89640400D03*
X138650400Y-89640400D03*
%TD*%
D17*
%TO.C,J13*%
X125730000Y-68580000D03*
X128270000Y-68580000D03*
X130810000Y-68580000D03*
X133350000Y-68580000D03*
X135890000Y-68580000D03*
X138430000Y-68580000D03*
X140970000Y-68580000D03*
X143510000Y-68580000D03*
X146050000Y-68580000D03*
X148590000Y-68580000D03*
%TD*%
M02*
