M48
INCH,TZ
T1C0.0157
T2C0.0335
T3C0.0400
%
G90
G05
T1
X43600Y-46700
X47284Y-42600
X49706Y-41498
X50100Y-41498
X50100Y-42100
X50300Y-44585
X53288Y-33900
X53700Y-35000
X53735Y-42124
X53858Y-33900
X53900Y-32929
X54000Y-37800
X54300Y-42200
X54301Y-31964
X54323Y-36883
X54499Y-34801
X54500Y-37654
X54500Y-40600
X54627Y-43424
X54700Y-38700
X54782Y-39600
X54851Y-42683
X54872Y-31964
X55000Y-43300
X55400Y-41700
X55530Y-37654
X55530Y-38500
X55530Y-39700
X55600Y-38100
X55800Y-44585
X55899Y-38853
X56057Y-41425
X56400Y-34900
X56400Y-38800
X58400Y-42508
X58400Y-43079
X58600Y-44871
X58800Y-42200
X59983Y-39099
X60100Y-42508
X60671Y-43371
X60800Y-41800
X60954Y-43089
X61375Y-43475
X62278Y-42119
X62700Y-42100
X63073Y-41976
X63300Y-35999
X63408Y-40737
X63800Y-40700
X63815Y-41630
X63817Y-42119
X63854Y-34400
X63900Y-35000
X64031Y-37229
X64078Y-40422
X64108Y-37922
X64446Y-41876
X64498Y-36323
X64700Y-42500
X65108Y-41808
X65318Y-35582
X65800Y-36000
X66200Y-45200
X66485Y-44872
T2
X47200Y-29500
X47200Y-30500
X48200Y-29500
X48200Y-30500
X49200Y-29500
X49200Y-30500
X49400Y-46000
X49500Y-27000
X50400Y-46000
X50500Y-27000
X51400Y-46000
X51500Y-27000
X52500Y-27000
X53000Y-46000
X53500Y-27000
X54000Y-46000
X54500Y-27000
X55000Y-46000
X55500Y-27000
X56000Y-46000
X56500Y-27000
X57000Y-46000
X57500Y-27000
X58000Y-46000
X58500Y-27000
X59000Y-46000
X60000Y-27000
X60000Y-46000
X61000Y-27000
X62000Y-27000
X62100Y-46100
X63000Y-27000
X63100Y-46100
X64000Y-27000
X64100Y-46100
X65000Y-27000
X65100Y-46100
X66000Y-27000
X66100Y-46100
X67000Y-27000
X67100Y-46100
X67200Y-34900
X67200Y-35900
X67200Y-36900
X68200Y-34900
X68200Y-35900
X68200Y-36900
T3
X58000Y-40000
X59000Y-40000
X60000Y-40000
X61000Y-40000
X64986Y-37382
X64986Y-38516
M30
