%TF.GenerationSoftware,KiCad,Pcbnew,8.0.5*%
%TF.CreationDate,2024-12-11T22:42:57-06:00*%
%TF.ProjectId,4011MS2,34303131-4d53-4322-9e6b-696361645f70,1.0*%
%TF.SameCoordinates,Original*%
%TF.FileFunction,Copper,L2,Bot*%
%TF.FilePolarity,Positive*%
%FSLAX46Y46*%
G04 Gerber Fmt 4.6, Leading zero omitted, Abs format (unit mm)*
G04 Created by KiCad (PCBNEW 8.0.5) date 2024-12-11 22:42:57*
%MOMM*%
%LPD*%
G01*
G04 APERTURE LIST*
%TA.AperFunction,ComponentPad*%
%ADD10C,1.422000*%
%TD*%
%TA.AperFunction,ComponentPad*%
%ADD11C,1.879600*%
%TD*%
%TA.AperFunction,ViaPad*%
%ADD12C,0.800000*%
%TD*%
%TA.AperFunction,Conductor*%
%ADD13C,0.250000*%
%TD*%
%TA.AperFunction,Conductor*%
%ADD14C,0.200000*%
%TD*%
G04 APERTURE END LIST*
D10*
%TO.P,J10,1,BOOT*%
%TO.N,unconnected-(U2-BOOT-Pad1)*%
X134620000Y-116840000D03*
%TO.P,J10,2,IOREF*%
%TO.N,unconnected-(U2-IOREF-Pad2)*%
X137160000Y-116840000D03*
%TO.P,J10,3,Reset*%
%TO.N,unconnected-(U2-Reset-Pad3)*%
X139700000Y-116840000D03*
%TO.P,J10,4,+3V3*%
%TO.N,3.3V*%
X142240000Y-116840000D03*
%TO.P,J10,5,+5V*%
%TO.N,unconnected-(U2-+5V-Pad5)*%
X144780000Y-116840000D03*
%TO.P,J10,6,GND*%
%TO.N,GND*%
X147320000Y-116840000D03*
%TO.P,J10,7,GND*%
X149860000Y-116840000D03*
%TO.P,J10,8,VIN*%
%TO.N,unconnected-(U2-VIN-Pad8)*%
X152400000Y-116840000D03*
%TD*%
%TO.P,J14,1*%
%TO.N,N/C*%
X152400000Y-68580000D03*
%TO.P,J14,2*%
X154940000Y-68580000D03*
%TO.P,J14,3*%
X157480000Y-68580000D03*
%TO.P,J14,4*%
X160020000Y-68580000D03*
%TO.P,J14,5*%
X162560000Y-68580000D03*
%TO.P,J14,6*%
X165100000Y-68580000D03*
%TO.P,J14,7*%
X167640000Y-68580000D03*
%TO.P,J14,8*%
X170180000Y-68580000D03*
%TD*%
%TO.P,J9,1,OFF*%
%TO.N,unconnected-(U1-OFF-Pad1)*%
X125476000Y-116840000D03*
%TO.P,J9,2,GND*%
%TO.N,GND*%
X128016000Y-116840000D03*
%TO.P,J9,3,VRTC*%
%TO.N,unconnected-(U1-VRTC-Pad3)*%
X130556000Y-116840000D03*
%TD*%
%TO.P,J11,1*%
%TO.N,N/C*%
X157734000Y-117094000D03*
%TO.P,J11,2*%
X160274000Y-117094000D03*
%TO.P,J11,3*%
X162814000Y-117094000D03*
%TO.P,J11,4*%
X165354000Y-117094000D03*
%TO.P,J11,5*%
X167894000Y-117094000D03*
%TO.P,J11,6*%
X170434000Y-117094000D03*
%TD*%
D11*
%TO.P,J2,1,1*%
%TO.N,LV_INT*%
X165064800Y-97830400D03*
%TD*%
%TO.P,J17,1,1*%
%TO.N,GND*%
X147320000Y-101600000D03*
%TO.P,J17,2,2*%
%TO.N,3.3V*%
X149860000Y-101600000D03*
%TO.P,J17,3,3*%
%TO.N,/SDA*%
X152400000Y-101600000D03*
%TO.P,J17,4,4*%
%TO.N,MC_SCL*%
X154940000Y-101600000D03*
%TD*%
D10*
%TO.P,J12,1,GPIO42*%
%TO.N,unconnected-(U4-GPIO42-Pad1)*%
X119888000Y-77470000D03*
%TO.P,J12,2,GPIO41*%
%TO.N,unconnected-(U4-GPIO41-Pad2)*%
X119888000Y-74930000D03*
%TO.P,J12,3,GPIO43/TXD0*%
%TO.N,unconnected-(U4-GPIO43{slash}TXD0-Pad3)*%
X122428000Y-77470000D03*
%TO.P,J12,4,GPIO0/DOWNLOAD*%
%TO.N,unconnected-(U4-GPIO0{slash}DOWNLOAD-Pad4)*%
X122428000Y-74930000D03*
%TO.P,J12,5,GPIO44/RXD0*%
%TO.N,unconnected-(U4-GPIO44{slash}RXD0-Pad5)*%
X124968000Y-77470000D03*
%TO.P,J12,6,GND*%
%TO.N,GND*%
X124968000Y-74930000D03*
%TD*%
D11*
%TO.P,J1,1,1*%
%TO.N,1.8V*%
X165064800Y-94950800D03*
%TD*%
D10*
%TO.P,J15,1,CIPO*%
%TO.N,unconnected-(U7-CIPO-Pad1)*%
X170688000Y-88646000D03*
%TO.P,J15,2,+5V*%
%TO.N,5V*%
X173228000Y-88646000D03*
%TO.P,J15,3,SCK*%
%TO.N,unconnected-(U7-SCK-Pad3)*%
X170688000Y-91186000D03*
%TO.P,J15,4,COPI*%
%TO.N,unconnected-(U7-COPI-Pad4)*%
X173228000Y-91186000D03*
%TO.P,J15,5,RESET*%
%TO.N,Net-(U7-RESET)*%
X170688000Y-93726000D03*
%TO.P,J15,6,GND*%
%TO.N,unconnected-(U7-GND-Pad6)*%
X173228000Y-93726000D03*
%TD*%
%TO.P,J13,1,SCL*%
%TO.N,unconnected-(U5-SCL-Pad1)*%
X125730000Y-68580000D03*
%TO.P,J13,2,SDA*%
%TO.N,unconnected-(U5-SDA-Pad2)*%
X128270000Y-68580000D03*
%TO.P,J13,3,AREF*%
%TO.N,unconnected-(U5-AREF-Pad3)*%
X130810000Y-68580000D03*
%TO.P,J13,4,GND*%
%TO.N,GND*%
X133350000Y-68580000D03*
%TO.P,J13,5,D13/SCK/CANRX0*%
%TO.N,unconnected-(U5-D13{slash}SCK{slash}CANRX0-Pad5)*%
X135890000Y-68580000D03*
%TO.P,J13,6,D12/CIPO*%
%TO.N,unconnected-(U5-D12{slash}CIPO-Pad6)*%
X138430000Y-68580000D03*
%TO.P,J13,7,~D11/COPI*%
%TO.N,unconnected-(U5-~D11{slash}COPI-Pad7)*%
X140970000Y-68580000D03*
%TO.P,J13,8,~D10/CS/CANTX0*%
%TO.N,unconnected-(U5-~D10{slash}CS{slash}CANTX0-Pad8)*%
X143510000Y-68580000D03*
%TO.P,J13,9,~D9*%
%TO.N,unconnected-(U5-~D9-Pad9)*%
X146050000Y-68580000D03*
%TO.P,J13,10,D8*%
%TO.N,unconnected-(U5-D8-Pad10)*%
X148590000Y-68580000D03*
%TD*%
D12*
%TO.N,3.3V*%
X136906000Y-83638798D03*
X143256000Y-98552000D03*
X162306000Y-88900000D03*
X159258000Y-106934000D03*
X141984029Y-98686398D03*
X154432000Y-106172000D03*
X138430000Y-103124000D03*
X143256000Y-88646000D03*
%TO.N,GND*%
X127762000Y-113247000D03*
X126253997Y-105406000D03*
X158185696Y-106980999D03*
X140716000Y-105918000D03*
X154105597Y-110163597D03*
X148844000Y-113972000D03*
X139322678Y-108414601D03*
X136800400Y-86106000D03*
X141045400Y-100838000D03*
X139700000Y-109982000D03*
X135350400Y-86106000D03*
X148336000Y-109421000D03*
X142385715Y-105218809D03*
X163691999Y-106364000D03*
X162095523Y-106983038D03*
X155892903Y-110426903D03*
X139145400Y-100584000D03*
X149352000Y-107188000D03*
X137922000Y-107188000D03*
X148336000Y-107971000D03*
%TO.N,1.8V*%
X139375400Y-81187998D03*
X137925400Y-81187998D03*
%TO.N,5V*%
X167132000Y-91440000D03*
X138751314Y-110298228D03*
X165374850Y-106192851D03*
X160782000Y-91436402D03*
X152654000Y-107971000D03*
X164338000Y-107950000D03*
X141732000Y-113247000D03*
%TO.N,Net-(JP2-Pad1)*%
X137980510Y-93682145D03*
X136486669Y-106995214D03*
%TO.N,Net-(U9-LX)*%
X168148000Y-114808000D03*
X110744000Y-118618000D03*
%TO.N,Net-(U9-FB)*%
X138428653Y-88393347D03*
X136398000Y-88900000D03*
X127254000Y-105406000D03*
X127254000Y-106934000D03*
%TO.N,LV_INT*%
X160206686Y-106617772D03*
X141045400Y-95642002D03*
X141045400Y-97790000D03*
X162089000Y-105739121D03*
X138430000Y-95642002D03*
X138938000Y-98298000D03*
X154823195Y-109445999D03*
X162052000Y-103378000D03*
%TO.N,Net-(U7-RESET)*%
X120101000Y-108204000D03*
X168873000Y-113975948D03*
%TO.N,/SDA*%
X152357200Y-99311200D03*
X162190000Y-87376000D03*
%TO.N,MC_SCL*%
X162639310Y-94562286D03*
X163825347Y-92261000D03*
X161056338Y-103471073D03*
X141224000Y-96774000D03*
X137160000Y-96012000D03*
X162759108Y-102670891D03*
X162834774Y-96322582D03*
X165907653Y-90378347D03*
%TD*%
D13*
%TO.N,3.3V*%
X142118427Y-98552000D02*
X141984029Y-98686398D01*
X143256000Y-88646000D02*
X142238029Y-88646000D01*
X159258000Y-106333390D02*
X159258000Y-106934000D01*
X136906000Y-83638798D02*
X141984029Y-88716827D01*
X143256000Y-98552000D02*
X142118427Y-98552000D01*
X141984029Y-88716827D02*
X141984029Y-88900000D01*
X160020000Y-105571390D02*
X159258000Y-106333390D01*
X141984029Y-100924676D02*
X141984029Y-98686398D01*
X162306000Y-88900000D02*
X162293097Y-88900000D01*
X141984029Y-88900000D02*
X141984029Y-98686398D01*
X139784705Y-103124000D02*
X141984029Y-100924676D01*
X158496000Y-106172000D02*
X154432000Y-106172000D01*
X160020000Y-91173097D02*
X160020000Y-105571390D01*
X142238029Y-88646000D02*
X141984029Y-88900000D01*
X138430000Y-103124000D02*
X139784705Y-103124000D01*
X162293097Y-88900000D02*
X160020000Y-91173097D01*
X159258000Y-106934000D02*
X158496000Y-106172000D01*
%TO.N,GND*%
X148844000Y-113284000D02*
X148336000Y-112776000D01*
X158185696Y-106980999D02*
X157978695Y-107188000D01*
X163072961Y-106983038D02*
X163691999Y-106364000D01*
X154368903Y-110426903D02*
X154105597Y-110163597D01*
X157978695Y-107188000D02*
X149352000Y-107188000D01*
X142385715Y-105264285D02*
X142385715Y-105218809D01*
X140716000Y-105918000D02*
X141732000Y-105918000D01*
X135350400Y-86106000D02*
X136800400Y-86106000D01*
X127762000Y-107720214D02*
X137389786Y-107720214D01*
X148336000Y-112776000D02*
X148336000Y-109421000D01*
X148844000Y-113972000D02*
X148844000Y-113284000D01*
X162095523Y-106983038D02*
X163072961Y-106983038D01*
X139322678Y-109604678D02*
X139700000Y-109982000D01*
X140970000Y-100838000D02*
X141045400Y-100838000D01*
X127014909Y-107720214D02*
X127762000Y-107720214D01*
X148336000Y-109421000D02*
X148336000Y-107971000D01*
D14*
X147320000Y-101600000D02*
X147320000Y-105156000D01*
D13*
X126253997Y-105406000D02*
X126253997Y-106959302D01*
X127762000Y-113247000D02*
X127762000Y-107720214D01*
X139145400Y-100584000D02*
X140716000Y-100584000D01*
X137389786Y-107720214D02*
X137922000Y-107188000D01*
X140716000Y-100584000D02*
X140970000Y-100838000D01*
X126253997Y-106959302D02*
X127014909Y-107720214D01*
X141732000Y-105918000D02*
X142385715Y-105264285D01*
X139322678Y-108414601D02*
X139322678Y-109604678D01*
D14*
X147320000Y-105156000D02*
X149352000Y-107188000D01*
D13*
X155892903Y-110426903D02*
X154368903Y-110426903D01*
%TO.N,1.8V*%
X139192000Y-81280000D02*
X139283398Y-81280000D01*
X137925400Y-81187998D02*
X139099998Y-81187998D01*
X139099998Y-81187998D02*
X139192000Y-81280000D01*
X139283398Y-81280000D02*
X139375400Y-81187998D01*
%TO.N,5V*%
X160288000Y-112000000D02*
X154916695Y-112000000D01*
X163800000Y-104618001D02*
X163800000Y-94454402D01*
X163024000Y-92500000D02*
X162434799Y-93089201D01*
X154916695Y-112000000D02*
X152654000Y-109737305D01*
X152654000Y-109737305D02*
X152654000Y-107971000D01*
X167132000Y-91440000D02*
X165586000Y-92986000D01*
X162434799Y-93089201D02*
X160782000Y-91436402D01*
X141732000Y-113247000D02*
X138751314Y-113247000D01*
X165374850Y-106192851D02*
X163800000Y-104618001D01*
X163510000Y-92986000D02*
X163024000Y-92500000D01*
X138751314Y-113247000D02*
X138751314Y-110298228D01*
X165586000Y-92986000D02*
X163510000Y-92986000D01*
X164338000Y-107950000D02*
X160288000Y-112000000D01*
X163800000Y-94454402D02*
X162434799Y-93089201D01*
%TO.N,Net-(JP2-Pad1)*%
X134620000Y-105664000D02*
X135155455Y-105664000D01*
X135155455Y-105664000D02*
X136486669Y-106995214D01*
X134620000Y-97042655D02*
X134620000Y-105664000D01*
X137980510Y-93682145D02*
X134620000Y-97042655D01*
%TO.N,Net-(U9-LX)*%
X110744000Y-118618000D02*
X112362000Y-117000000D01*
X120397006Y-114808000D02*
X168148000Y-114808000D01*
X112362000Y-117000000D02*
X118205006Y-117000000D01*
X118205006Y-117000000D02*
X120397006Y-114808000D01*
%TO.N,Net-(U9-FB)*%
X136398000Y-88900000D02*
X136652000Y-88646000D01*
X138176000Y-88646000D02*
X138428653Y-88393347D01*
X127254000Y-106934000D02*
X127254000Y-105406000D01*
X136652000Y-88646000D02*
X138176000Y-88646000D01*
%TO.N,LV_INT*%
X140831998Y-95642002D02*
X140970000Y-95504000D01*
X140537400Y-98298000D02*
X141045400Y-97790000D01*
X140970000Y-95504000D02*
X141045400Y-95579400D01*
X162306000Y-104394000D02*
X162306000Y-105410000D01*
X138430000Y-95642002D02*
X140831998Y-95642002D01*
X160206686Y-107010619D02*
X157771306Y-109445999D01*
X141045400Y-95579400D02*
X141045400Y-95642002D01*
X162052000Y-104140000D02*
X162306000Y-104394000D01*
X162306000Y-105410000D02*
X162306000Y-105522121D01*
X162306000Y-105522121D02*
X162089000Y-105739121D01*
X157771306Y-109445999D02*
X154823195Y-109445999D01*
X138938000Y-98298000D02*
X140537400Y-98298000D01*
X162052000Y-103378000D02*
X162052000Y-104140000D01*
X160206686Y-106617772D02*
X160206686Y-107010619D01*
%TO.N,Net-(U7-RESET)*%
X169929172Y-113975948D02*
X169929172Y-93877954D01*
X132163305Y-113972000D02*
X125869000Y-113972000D01*
X125869000Y-113972000D02*
X120101000Y-108204000D01*
X166884305Y-86651000D02*
X158883695Y-86651000D01*
X172192000Y-91615126D02*
X172192000Y-90912000D01*
X172192000Y-90912000D02*
X170962000Y-89682000D01*
X138647000Y-106887695D02*
X138647000Y-107488305D01*
X138647000Y-107488305D02*
X132163305Y-113972000D01*
X169929172Y-93877954D02*
X172192000Y-91615126D01*
X169915305Y-89682000D02*
X166884305Y-86651000D01*
X158883695Y-86651000D02*
X138647000Y-106887695D01*
X168873000Y-113975948D02*
X169929172Y-113975948D01*
X170962000Y-89682000D02*
X169915305Y-89682000D01*
%TO.N,/SDA*%
X159570000Y-90610695D02*
X159570000Y-92430000D01*
X159570000Y-92430000D02*
X158500000Y-93500000D01*
X154692698Y-99564000D02*
X158500000Y-99564000D01*
X162190000Y-87376000D02*
X162190000Y-88175000D01*
X158500000Y-93500000D02*
X158500000Y-99564000D01*
X162005695Y-88175000D02*
X159570000Y-90610695D01*
X154439898Y-99311200D02*
X154692698Y-99564000D01*
X162190000Y-88175000D02*
X162005695Y-88175000D01*
X152357200Y-99311200D02*
X154439898Y-99311200D01*
%TO.N,MC_SCL*%
X137160000Y-96012000D02*
X138176000Y-97028000D01*
X164025000Y-92261000D02*
X163825347Y-92261000D01*
X162759108Y-102670891D02*
X162741217Y-102653000D01*
X140970000Y-97028000D02*
X141224000Y-96774000D01*
X162639310Y-96127118D02*
X162834774Y-96322582D01*
X161327000Y-103378000D02*
X161149411Y-103378000D01*
X162741217Y-102653000D02*
X161751695Y-102653000D01*
X165907653Y-90378347D02*
X164025000Y-92261000D01*
X138176000Y-97028000D02*
X140970000Y-97028000D01*
X162639310Y-94562286D02*
X162639310Y-96127118D01*
X161149411Y-103378000D02*
X161056338Y-103471073D01*
X161327000Y-103077695D02*
X161327000Y-103378000D01*
X161751695Y-102653000D02*
X161327000Y-103077695D01*
%TD*%
M02*
