%TF.GenerationSoftware,KiCad,Pcbnew,8.0.5*%
%TF.CreationDate,2024-12-11T22:42:57-06:00*%
%TF.ProjectId,4011MS2,34303131-4d53-4322-9e6b-696361645f70,1.0*%
%TF.SameCoordinates,Original*%
%TF.FileFunction,Copper,L1,Top*%
%TF.FilePolarity,Positive*%
%FSLAX46Y46*%
G04 Gerber Fmt 4.6, Leading zero omitted, Abs format (unit mm)*
G04 Created by KiCad (PCBNEW 8.0.5) date 2024-12-11 22:42:57*
%MOMM*%
%LPD*%
G01*
G04 APERTURE LIST*
G04 Aperture macros list*
%AMRoundRect*
0 Rectangle with rounded corners*
0 $1 Rounding radius*
0 $2 $3 $4 $5 $6 $7 $8 $9 X,Y pos of 4 corners*
0 Add a 4 corners polygon primitive as box body*
4,1,4,$2,$3,$4,$5,$6,$7,$8,$9,$2,$3,0*
0 Add four circle primitives for the rounded corners*
1,1,$1+$1,$2,$3*
1,1,$1+$1,$4,$5*
1,1,$1+$1,$6,$7*
1,1,$1+$1,$8,$9*
0 Add four rect primitives between the rounded corners*
20,1,$1+$1,$2,$3,$4,$5,0*
20,1,$1+$1,$4,$5,$6,$7,0*
20,1,$1+$1,$6,$7,$8,$9,0*
20,1,$1+$1,$8,$9,$2,$3,0*%
G04 Aperture macros list end*
%TA.AperFunction,EtchedComponent*%
%ADD10C,0.000000*%
%TD*%
%TA.AperFunction,SMDPad,CuDef*%
%ADD11R,0.850000X0.900000*%
%TD*%
%TA.AperFunction,SMDPad,CuDef*%
%ADD12R,1.100000X1.000000*%
%TD*%
%TA.AperFunction,SMDPad,CuDef*%
%ADD13R,1.600000X0.300000*%
%TD*%
%TA.AperFunction,SMDPad,CuDef*%
%ADD14R,0.600000X1.350000*%
%TD*%
%TA.AperFunction,SMDPad,CuDef*%
%ADD15R,1.200000X2.000000*%
%TD*%
%TA.AperFunction,ComponentPad*%
%ADD16C,1.422000*%
%TD*%
%TA.AperFunction,SMDPad,CuDef*%
%ADD17R,0.400000X1.100000*%
%TD*%
%TA.AperFunction,SMDPad,CuDef*%
%ADD18R,0.800000X1.800000*%
%TD*%
%TA.AperFunction,ComponentPad*%
%ADD19C,1.879600*%
%TD*%
%TA.AperFunction,SMDPad,CuDef*%
%ADD20R,0.660400X1.270000*%
%TD*%
%TA.AperFunction,SMDPad,CuDef*%
%ADD21RoundRect,0.150000X-0.350000X0.350000X-0.350000X-0.350000X0.350000X-0.350000X0.350000X0.350000X0*%
%TD*%
%TA.AperFunction,SMDPad,CuDef*%
%ADD22R,0.400000X0.750000*%
%TD*%
%TA.AperFunction,SMDPad,CuDef*%
%ADD23R,0.750000X0.350000*%
%TD*%
%TA.AperFunction,SMDPad,CuDef*%
%ADD24R,0.800000X1.200000*%
%TD*%
%TA.AperFunction,SMDPad,CuDef*%
%ADD25RoundRect,0.375000X-0.625000X-0.375000X0.625000X-0.375000X0.625000X0.375000X-0.625000X0.375000X0*%
%TD*%
%TA.AperFunction,SMDPad,CuDef*%
%ADD26RoundRect,0.500000X-0.500000X-1.400000X0.500000X-1.400000X0.500000X1.400000X-0.500000X1.400000X0*%
%TD*%
%TA.AperFunction,ViaPad*%
%ADD27C,0.800000*%
%TD*%
%TA.AperFunction,Conductor*%
%ADD28C,0.250000*%
%TD*%
G04 APERTURE END LIST*
D10*
%TA.AperFunction,EtchedComponent*%
%TO.C,JP2*%
G36*
X137686300Y-105647150D02*
G01*
X136790950Y-105647150D01*
X136790950Y-105380450D01*
X137686300Y-105380450D01*
X137686300Y-105647150D01*
G37*
%TD.AperFunction*%
%TA.AperFunction,EtchedComponent*%
%TO.C,JP1*%
G36*
X137686300Y-102411950D02*
G01*
X136790950Y-102411950D01*
X136790950Y-102145250D01*
X137686300Y-102145250D01*
X137686300Y-102411950D01*
G37*
%TD.AperFunction*%
%TD*%
D11*
%TO.P,C9,1*%
%TO.N,GND*%
X141070400Y-106788800D03*
%TO.P,C9,2*%
%TO.N,1.8V*%
X142230400Y-106788800D03*
%TD*%
D12*
%TO.P,C8,1,1*%
%TO.N,5V*%
X136950400Y-84738800D03*
%TO.P,C8,2,2*%
%TO.N,GND*%
X138650400Y-84738800D03*
%TD*%
D13*
%TO.P,U11,1,B2*%
%TO.N,LV_INT*%
X150800000Y-107396000D03*
%TO.P,U11,2,GND*%
%TO.N,GND*%
X150800000Y-108046000D03*
%TO.P,U11,3,VCCA*%
%TO.N,1.8V*%
X150800000Y-108696000D03*
%TO.P,U11,4,A2*%
%TO.N,LV_INT*%
X150800000Y-109346000D03*
%TO.P,U11,5,A1*%
X154200000Y-109346000D03*
%TO.P,U11,6,OE*%
%TO.N,1.8V*%
X154200000Y-108696000D03*
%TO.P,U11,7,VCCB*%
%TO.N,5V*%
X154200000Y-108046000D03*
%TO.P,U11,8,B1*%
%TO.N,MC_SDA*%
X154200000Y-107396000D03*
%TD*%
D11*
%TO.P,C2,1,1*%
%TO.N,3.3V*%
X141070400Y-99736400D03*
%TO.P,C2,2,2*%
%TO.N,GND*%
X142230400Y-99736400D03*
%TD*%
D14*
%TO.P,J6,1,1*%
%TO.N,GND*%
X160465000Y-77336000D03*
%TO.P,J6,2,2*%
%TO.N,3.3V*%
X161465000Y-77336000D03*
%TO.P,J6,3,3*%
%TO.N,/SDA*%
X162465000Y-77336000D03*
%TO.P,J6,4,4*%
%TO.N,MC_SCL*%
X163465000Y-77336000D03*
D15*
%TO.P,J6,NC1*%
%TO.N,N/C*%
X164765000Y-81011000D03*
%TO.P,J6,NC2*%
X159165000Y-81011000D03*
%TD*%
D16*
%TO.P,J10,1,BOOT*%
%TO.N,unconnected-(U2-BOOT-Pad1)*%
X134620000Y-116840000D03*
%TO.P,J10,2,IOREF*%
%TO.N,unconnected-(U2-IOREF-Pad2)*%
X137160000Y-116840000D03*
%TO.P,J10,3,Reset*%
%TO.N,unconnected-(U2-Reset-Pad3)*%
X139700000Y-116840000D03*
%TO.P,J10,4,+3V3*%
%TO.N,3.3V*%
X142240000Y-116840000D03*
%TO.P,J10,5,+5V*%
%TO.N,unconnected-(U2-+5V-Pad5)*%
X144780000Y-116840000D03*
%TO.P,J10,6,GND*%
%TO.N,GND*%
X147320000Y-116840000D03*
%TO.P,J10,7,GND*%
X149860000Y-116840000D03*
%TO.P,J10,8,VIN*%
%TO.N,unconnected-(U2-VIN-Pad8)*%
X152400000Y-116840000D03*
%TD*%
D12*
%TO.P,R3,1,1*%
%TO.N,Net-(JP1-Pad1)*%
X136950400Y-92091200D03*
%TO.P,R3,2,2*%
%TO.N,Net-(D1-PadA)*%
X138650400Y-92091200D03*
%TD*%
D17*
%TO.P,U2,1,LX*%
%TO.N,Net-(U9-LX)*%
X118405000Y-111506000D03*
%TO.P,U2,2,EN*%
%TO.N,3.3V*%
X119055000Y-111506000D03*
%TO.P,U2,3,VIN*%
X119705000Y-111506000D03*
%TO.P,U2,4,AGND*%
%TO.N,GND*%
X120355000Y-111506000D03*
%TO.P,U2,5,FB*%
%TO.N,Net-(U9-FB)*%
X120355000Y-107006000D03*
%TO.P,U2,6,RSET*%
%TO.N,Net-(U7-RESET)*%
X119705000Y-107006000D03*
%TO.P,U2,7,OUT*%
%TO.N,5V*%
X119055000Y-107006000D03*
%TO.P,U2,8,PGND*%
%TO.N,GND*%
X118405000Y-107006000D03*
%TD*%
D12*
%TO.P,C4,1,1*%
%TO.N,1.8V*%
X136950400Y-79837200D03*
%TO.P,C4,2,2*%
%TO.N,GND*%
X138650400Y-79837200D03*
%TD*%
D16*
%TO.P,J14,1*%
%TO.N,N/C*%
X152400000Y-68580000D03*
%TO.P,J14,2*%
X154940000Y-68580000D03*
%TO.P,J14,3*%
X157480000Y-68580000D03*
%TO.P,J14,4*%
X160020000Y-68580000D03*
%TO.P,J14,5*%
X162560000Y-68580000D03*
%TO.P,J14,6*%
X165100000Y-68580000D03*
%TO.P,J14,7*%
X167640000Y-68580000D03*
%TO.P,J14,8*%
X170180000Y-68580000D03*
%TD*%
D12*
%TO.P,C1,1,1*%
%TO.N,3.3V*%
X136950400Y-77386400D03*
%TO.P,C1,2,2*%
%TO.N,GND*%
X138650400Y-77386400D03*
%TD*%
%TO.P,R6,1*%
%TO.N,LV_INT*%
X136950400Y-99443600D03*
%TO.P,R6,2*%
%TO.N,GND*%
X138650400Y-99443600D03*
%TD*%
D16*
%TO.P,J9,1,OFF*%
%TO.N,unconnected-(U1-OFF-Pad1)*%
X125476000Y-116840000D03*
%TO.P,J9,2,GND*%
%TO.N,GND*%
X128016000Y-116840000D03*
%TO.P,J9,3,VRTC*%
%TO.N,unconnected-(U1-VRTC-Pad3)*%
X130556000Y-116840000D03*
%TD*%
D18*
%TO.P,L1,1,1*%
%TO.N,3.3V*%
X163015000Y-90311000D03*
%TO.P,L1,2,2*%
%TO.N,Net-(U9-LX)*%
X164815000Y-90311000D03*
%TD*%
D16*
%TO.P,J11,1*%
%TO.N,N/C*%
X157734000Y-117094000D03*
%TO.P,J11,2*%
X160274000Y-117094000D03*
%TO.P,J11,3*%
X162814000Y-117094000D03*
%TO.P,J11,4*%
X165354000Y-117094000D03*
%TO.P,J11,5*%
X167894000Y-117094000D03*
%TO.P,J11,6*%
X170434000Y-117094000D03*
%TD*%
D19*
%TO.P,J2,1,1*%
%TO.N,LV_INT*%
X165064800Y-97830400D03*
%TD*%
D20*
%TO.P,JP2,1,1*%
%TO.N,Net-(JP2-Pad1)*%
X136975100Y-105513800D03*
%TO.P,JP2,2,2*%
%TO.N,3.3V*%
X138016500Y-105513800D03*
%TD*%
D11*
%TO.P,C3,1,1*%
%TO.N,1.8V*%
X141070400Y-102087200D03*
%TO.P,C3,2,2*%
%TO.N,GND*%
X142230400Y-102087200D03*
%TD*%
D21*
%TO.P,D1,A,A*%
%TO.N,Net-(D1-PadA)*%
X136675000Y-108208850D03*
%TO.P,D1,C,C*%
%TO.N,GND*%
X138429000Y-108208850D03*
%TD*%
D22*
%TO.P,U8,1,IN*%
%TO.N,3.3V*%
X156688500Y-108606000D03*
%TO.P,U8,2,GND*%
%TO.N,GND*%
X157338500Y-108606000D03*
%TO.P,U8,3,EN*%
%TO.N,3.3V*%
X157988500Y-108606000D03*
%TO.P,U8,4,BP*%
%TO.N,GND*%
X157988500Y-106956000D03*
%TO.P,U8,5,OUT*%
%TO.N,1.8V*%
X156688500Y-106956000D03*
%TD*%
D12*
%TO.P,R1,1,1*%
%TO.N,GND*%
X136950400Y-87189600D03*
%TO.P,R1,2,2*%
%TO.N,Net-(U9-FB)*%
X138650400Y-87189600D03*
%TD*%
D11*
%TO.P,C7,1,1*%
%TO.N,1.8V*%
X141070400Y-104438000D03*
%TO.P,C7,2,2*%
%TO.N,GND*%
X142230400Y-104438000D03*
%TD*%
D19*
%TO.P,J17,1,1*%
%TO.N,GND*%
X147320000Y-101600000D03*
%TO.P,J17,2,2*%
%TO.N,3.3V*%
X149860000Y-101600000D03*
%TO.P,J17,3,3*%
%TO.N,/SDA*%
X152400000Y-101600000D03*
%TO.P,J17,4,4*%
%TO.N,MC_SCL*%
X154940000Y-101600000D03*
%TD*%
D20*
%TO.P,JP1,1,1*%
%TO.N,Net-(JP1-Pad1)*%
X136975100Y-102278600D03*
%TO.P,JP1,2,2*%
%TO.N,3.3V*%
X138016500Y-102278600D03*
%TD*%
D23*
%TO.P,U10,P1,NC*%
%TO.N,unconnected-(U10-NC-PadP1)*%
X161317000Y-104764000D03*
%TO.P,U10,P2,SCL*%
%TO.N,LV_INT*%
X161317000Y-105564000D03*
%TO.P,U10,P3,SDA*%
X161317000Y-106364000D03*
%TO.P,U10,P4,GND*%
%TO.N,GND*%
X161317000Y-107164000D03*
%TO.P,U10,P5,NC*%
%TO.N,unconnected-(U10-NC-PadP5)*%
X161317000Y-107963999D03*
%TO.P,U10,P6,NC*%
%TO.N,unconnected-(U10-NC-PadP6)*%
X161317000Y-108763999D03*
%TO.P,U10,P7,NC*%
%TO.N,unconnected-(U10-NC-PadP7)*%
X161317000Y-109563999D03*
%TO.P,U10,P8,NC*%
%TO.N,unconnected-(U10-NC-PadP8)*%
X163716999Y-109563999D03*
%TO.P,U10,P9,VDD_LED*%
%TO.N,5V*%
X163716999Y-108763999D03*
%TO.P,U10,P10,VDD_LED*%
X163716999Y-107963999D03*
%TO.P,U10,P11,VDD*%
%TO.N,1.8V*%
X163716999Y-107164000D03*
%TO.P,U10,P12,GND*%
%TO.N,GND*%
X163716999Y-106364000D03*
%TO.P,U10,P13,~{INT}*%
%TO.N,LV_INT*%
X163716999Y-105564000D03*
%TO.P,U10,P14,NC*%
%TO.N,unconnected-(U10-NC-PadP14)*%
X163716999Y-104764000D03*
%TD*%
D12*
%TO.P,C5,1,1*%
%TO.N,3.3V*%
X136950400Y-82288000D03*
%TO.P,C5,2,2*%
%TO.N,GND*%
X138650400Y-82288000D03*
%TD*%
D14*
%TO.P,J16,1,1*%
%TO.N,GND*%
X160465000Y-83712600D03*
%TO.P,J16,2,2*%
%TO.N,3.3V*%
X161465000Y-83712600D03*
%TO.P,J16,3,3*%
%TO.N,/SDA*%
X162465000Y-83712600D03*
%TO.P,J16,4,4*%
%TO.N,MC_SCL*%
X163465000Y-83712600D03*
D15*
%TO.P,J16,NC1*%
%TO.N,N/C*%
X164765000Y-87387600D03*
%TO.P,J16,NC2*%
X159165000Y-87387600D03*
%TD*%
D16*
%TO.P,J12,1,GPIO42*%
%TO.N,unconnected-(U4-GPIO42-Pad1)*%
X119888000Y-77470000D03*
%TO.P,J12,2,GPIO41*%
%TO.N,unconnected-(U4-GPIO41-Pad2)*%
X119888000Y-74930000D03*
%TO.P,J12,3,GPIO43/TXD0*%
%TO.N,unconnected-(U4-GPIO43{slash}TXD0-Pad3)*%
X122428000Y-77470000D03*
%TO.P,J12,4,GPIO0/DOWNLOAD*%
%TO.N,unconnected-(U4-GPIO0{slash}DOWNLOAD-Pad4)*%
X122428000Y-74930000D03*
%TO.P,J12,5,GPIO44/RXD0*%
%TO.N,unconnected-(U4-GPIO44{slash}RXD0-Pad5)*%
X124968000Y-77470000D03*
%TO.P,J12,6,GND*%
%TO.N,GND*%
X124968000Y-74930000D03*
%TD*%
D12*
%TO.P,R5,1*%
%TO.N,MC_SCL*%
X136950400Y-96992800D03*
%TO.P,R5,2*%
%TO.N,LV_INT*%
X138650400Y-96992800D03*
%TD*%
D24*
%TO.P,C6,1,1*%
%TO.N,5V*%
X159190400Y-90236400D03*
%TO.P,C6,2,2*%
%TO.N,GND*%
X160990400Y-90236400D03*
%TD*%
D12*
%TO.P,R4,1,1*%
%TO.N,LV_INT*%
X136950400Y-94542000D03*
%TO.P,R4,2,2*%
%TO.N,Net-(JP2-Pad1)*%
X138650400Y-94542000D03*
%TD*%
D25*
%TO.P,U12,1,GND*%
%TO.N,GND*%
X146710000Y-88886000D03*
%TO.P,U12,2,VO*%
%TO.N,1.8V*%
X146710000Y-91186000D03*
D26*
X153010000Y-91186000D03*
D25*
%TO.P,U12,3,VI*%
%TO.N,3.3V*%
X146710000Y-93486000D03*
%TD*%
D19*
%TO.P,J1,1,1*%
%TO.N,1.8V*%
X165064800Y-94950800D03*
%TD*%
D16*
%TO.P,J15,1,CIPO*%
%TO.N,unconnected-(U7-CIPO-Pad1)*%
X170688000Y-88646000D03*
%TO.P,J15,2,+5V*%
%TO.N,5V*%
X173228000Y-88646000D03*
%TO.P,J15,3,SCK*%
%TO.N,unconnected-(U7-SCK-Pad3)*%
X170688000Y-91186000D03*
%TO.P,J15,4,COPI*%
%TO.N,unconnected-(U7-COPI-Pad4)*%
X173228000Y-91186000D03*
%TO.P,J15,5,RESET*%
%TO.N,Net-(U7-RESET)*%
X170688000Y-93726000D03*
%TO.P,J15,6,GND*%
%TO.N,unconnected-(U7-GND-Pad6)*%
X173228000Y-93726000D03*
%TD*%
D11*
%TO.P,C10,1*%
%TO.N,5V*%
X141070400Y-109139600D03*
%TO.P,C10,2*%
%TO.N,GND*%
X142230400Y-109139600D03*
%TD*%
D12*
%TO.P,R2,1,1*%
%TO.N,Net-(U9-FB)*%
X136950400Y-89640400D03*
%TO.P,R2,2,2*%
%TO.N,5V*%
X138650400Y-89640400D03*
%TD*%
D16*
%TO.P,J13,1,SCL*%
%TO.N,unconnected-(U5-SCL-Pad1)*%
X125730000Y-68580000D03*
%TO.P,J13,2,SDA*%
%TO.N,unconnected-(U5-SDA-Pad2)*%
X128270000Y-68580000D03*
%TO.P,J13,3,AREF*%
%TO.N,unconnected-(U5-AREF-Pad3)*%
X130810000Y-68580000D03*
%TO.P,J13,4,GND*%
%TO.N,GND*%
X133350000Y-68580000D03*
%TO.P,J13,5,D13/SCK/CANRX0*%
%TO.N,unconnected-(U5-D13{slash}SCK{slash}CANRX0-Pad5)*%
X135890000Y-68580000D03*
%TO.P,J13,6,D12/CIPO*%
%TO.N,unconnected-(U5-D12{slash}CIPO-Pad6)*%
X138430000Y-68580000D03*
%TO.P,J13,7,~D11/COPI*%
%TO.N,unconnected-(U5-~D11{slash}COPI-Pad7)*%
X140970000Y-68580000D03*
%TO.P,J13,8,~D10/CS/CANTX0*%
%TO.N,unconnected-(U5-~D10{slash}CS{slash}CANTX0-Pad8)*%
X143510000Y-68580000D03*
%TO.P,J13,9,~D9*%
%TO.N,unconnected-(U5-~D9-Pad9)*%
X146050000Y-68580000D03*
%TO.P,J13,10,D8*%
%TO.N,unconnected-(U5-D8-Pad10)*%
X148590000Y-68580000D03*
%TD*%
D27*
%TO.N,3.3V*%
X136906000Y-83638798D03*
X143256000Y-98552000D03*
X162306000Y-88900000D03*
X159258000Y-106934000D03*
X141984029Y-98686398D03*
X154432000Y-106172000D03*
X138430000Y-103124000D03*
X143256000Y-88646000D03*
%TO.N,GND*%
X127762000Y-113247000D03*
X126253997Y-105406000D03*
X158185696Y-106980999D03*
X140716000Y-105918000D03*
X154105597Y-110163597D03*
X148844000Y-113972000D03*
X139322678Y-108414601D03*
X136800400Y-86106000D03*
X141045400Y-100838000D03*
X139700000Y-109982000D03*
X135350400Y-86106000D03*
X148336000Y-109421000D03*
X142385715Y-105218809D03*
X163691999Y-106364000D03*
X162095523Y-106983038D03*
X155892903Y-110426903D03*
X139145400Y-100584000D03*
X149352000Y-107188000D03*
X137922000Y-107188000D03*
X148336000Y-107971000D03*
%TO.N,1.8V*%
X139375400Y-81187998D03*
X137925400Y-81187998D03*
%TO.N,5V*%
X167132000Y-91440000D03*
X138751314Y-110298228D03*
X165374850Y-106192851D03*
X160782000Y-91436402D03*
X152654000Y-107971000D03*
X164338000Y-107950000D03*
X141732000Y-113247000D03*
%TO.N,Net-(JP2-Pad1)*%
X137980510Y-93682145D03*
X136486669Y-106995214D03*
%TO.N,Net-(U9-LX)*%
X168148000Y-114808000D03*
X110744000Y-118618000D03*
%TO.N,Net-(U9-FB)*%
X138428653Y-88393347D03*
X136398000Y-88900000D03*
X127254000Y-105406000D03*
X127254000Y-106934000D03*
%TO.N,LV_INT*%
X160206686Y-106617772D03*
X141045400Y-95642002D03*
X141045400Y-97790000D03*
X162089000Y-105739121D03*
X138430000Y-95642002D03*
X138938000Y-98298000D03*
X154823195Y-109445999D03*
X162052000Y-103378000D03*
%TO.N,Net-(U7-RESET)*%
X120101000Y-108204000D03*
X168873000Y-113975948D03*
%TO.N,/SDA*%
X152357200Y-99311200D03*
X162190000Y-87376000D03*
%TO.N,MC_SCL*%
X162639310Y-94562286D03*
X163825347Y-92261000D03*
X161056338Y-103471073D03*
X141224000Y-96774000D03*
X137160000Y-96012000D03*
X162759108Y-102670891D03*
X162834774Y-96322582D03*
X165907653Y-90378347D03*
%TD*%
D28*
%TO.N,3.3V*%
X140970000Y-112522000D02*
X141992000Y-111500000D01*
X120071000Y-113000000D02*
X120549000Y-112522000D01*
X141984029Y-98686398D02*
X140835602Y-98686398D01*
X153204800Y-99204800D02*
X153204800Y-104944800D01*
X136075400Y-78261400D02*
X136075400Y-81413000D01*
X157913500Y-109306000D02*
X157988500Y-109231000D01*
X138016500Y-102710500D02*
X138430000Y-103124000D01*
X138016500Y-102278600D02*
X138016500Y-102710500D01*
X154138000Y-106172000D02*
X154432000Y-106172000D01*
X163015000Y-90311000D02*
X163015000Y-89609000D01*
X153204800Y-104944800D02*
X154432000Y-106172000D01*
X140770400Y-98751600D02*
X140770400Y-99436400D01*
X156763500Y-109306000D02*
X157913500Y-109306000D01*
X161465000Y-88761000D02*
X161465000Y-83712600D01*
X140835602Y-98686398D02*
X140770400Y-98751600D01*
X140970000Y-115570000D02*
X140970000Y-112522000D01*
X151087200Y-103121200D02*
X154138000Y-106172000D01*
X140770400Y-99436400D02*
X141070400Y-99736400D01*
X156688500Y-108606000D02*
X156688500Y-109231000D01*
X157988500Y-108203500D02*
X159258000Y-106934000D01*
X143256000Y-98552000D02*
X152552000Y-98552000D01*
X120549000Y-112522000D02*
X137922000Y-112522000D01*
X157988500Y-108606000D02*
X157988500Y-108203500D01*
X153794500Y-111500000D02*
X156688500Y-108606000D01*
X151087200Y-102827200D02*
X149860000Y-101600000D01*
X136950400Y-77386400D02*
X136075400Y-78261400D01*
X161465000Y-83712600D02*
X161465000Y-77336000D01*
X163015000Y-89609000D02*
X162306000Y-88900000D01*
X143524000Y-88914000D02*
X143256000Y-88646000D01*
X163015000Y-90311000D02*
X161465000Y-88761000D01*
X136950400Y-83594398D02*
X136906000Y-83638798D01*
X146710000Y-93486000D02*
X143256000Y-90032000D01*
X151087200Y-103121200D02*
X151087200Y-102827200D01*
X137922000Y-112522000D02*
X142240000Y-116840000D01*
X136950400Y-82288000D02*
X136950400Y-83594398D01*
X142240000Y-116840000D02*
X140970000Y-115570000D01*
X156688500Y-109231000D02*
X156763500Y-109306000D01*
X143256000Y-90032000D02*
X143256000Y-88646000D01*
X157988500Y-109231000D02*
X157988500Y-108606000D01*
X152552000Y-98552000D02*
X153204800Y-99204800D01*
X138016500Y-102278600D02*
X138016500Y-105513800D01*
X141992000Y-111500000D02*
X153794500Y-111500000D01*
X136075400Y-81413000D02*
X136950400Y-82288000D01*
X119055000Y-111984000D02*
X120071000Y-113000000D01*
%TO.N,GND*%
X146608000Y-89140000D02*
X145578000Y-89140000D01*
X146710000Y-88886000D02*
X146710000Y-85446000D01*
X157429097Y-110426903D02*
X155892903Y-110426903D01*
X118405000Y-107006000D02*
X118405000Y-106219604D01*
X160465000Y-89711000D02*
X160465000Y-83712600D01*
X154105597Y-110163597D02*
X149078597Y-110163597D01*
X150725000Y-107971000D02*
X150800000Y-108046000D01*
X142230400Y-109504600D02*
X142230400Y-109139600D01*
X138650400Y-73650400D02*
X138650400Y-77386400D01*
X138650400Y-77386400D02*
X138650400Y-79837200D01*
X160692000Y-107164000D02*
X157429097Y-110426903D01*
X141070400Y-106788800D02*
X141070400Y-107614600D01*
X141045400Y-100838000D02*
X141493800Y-100838000D01*
X118405000Y-106219604D02*
X118943604Y-105681000D01*
X161914561Y-107164000D02*
X162095523Y-106983038D01*
X118405000Y-108806000D02*
X120355000Y-110756000D01*
X149860000Y-116840000D02*
X147320000Y-116840000D01*
X149078597Y-110163597D02*
X148336000Y-109421000D01*
X141070400Y-107614600D02*
X142230400Y-108774600D01*
X137922000Y-107701850D02*
X138429000Y-108208850D01*
X161317000Y-107164000D02*
X160692000Y-107164000D01*
X166779600Y-94135600D02*
X164180000Y-91536000D01*
X142230400Y-102087200D02*
X142230400Y-104438000D01*
X138650400Y-85489600D02*
X136950400Y-87189600D01*
X138650400Y-100089000D02*
X139145400Y-100584000D01*
X135350400Y-86106000D02*
X135350400Y-90149600D01*
X124968000Y-74930000D02*
X126285000Y-74930000D01*
X135350400Y-90149600D02*
X126253997Y-99246003D01*
X166779600Y-103762795D02*
X166779600Y-94135600D01*
X148336000Y-107971000D02*
X148336000Y-107188000D01*
X142230400Y-108774600D02*
X142230400Y-109139600D01*
X157988500Y-106956000D02*
X157338500Y-107606000D01*
X136800400Y-87039600D02*
X136950400Y-87189600D01*
X136800400Y-86106000D02*
X136800400Y-87039600D01*
X139700000Y-109982000D02*
X141753000Y-109982000D01*
X128016000Y-113501000D02*
X127762000Y-113247000D01*
X161317000Y-107164000D02*
X161914561Y-107164000D01*
X162290000Y-91536000D02*
X160990400Y-90236400D01*
X138429000Y-108208850D02*
X139116927Y-108208850D01*
X142230400Y-109139600D02*
X142511800Y-109421000D01*
X163691999Y-106364000D02*
X164178395Y-106364000D01*
X137922000Y-107188000D02*
X137922000Y-107701850D01*
X128016000Y-116840000D02*
X128016000Y-113501000D01*
X118405000Y-107006000D02*
X118405000Y-108806000D01*
X142230400Y-105063494D02*
X142385715Y-105218809D01*
X138650400Y-79837200D02*
X138650400Y-82288000D01*
X142230400Y-100101400D02*
X142230400Y-99736400D01*
X164178395Y-106364000D02*
X166779600Y-103762795D01*
X148336000Y-107188000D02*
X148336000Y-106979600D01*
X142230400Y-102087200D02*
X142230400Y-99736400D01*
X133580000Y-68580000D02*
X138650400Y-73650400D01*
X139116927Y-108208850D02*
X139322678Y-108414601D01*
X142511800Y-109421000D02*
X148336000Y-109421000D01*
X138650400Y-99443600D02*
X138650400Y-100089000D01*
X126285000Y-74930000D02*
X132635000Y-68580000D01*
X132635000Y-68580000D02*
X133350000Y-68580000D01*
X133350000Y-68580000D02*
X133580000Y-68580000D01*
X164180000Y-91536000D02*
X162290000Y-91536000D01*
X149352000Y-107188000D02*
X148336000Y-107188000D01*
X138650400Y-82288000D02*
X138650400Y-84738800D01*
X141493800Y-100838000D02*
X142230400Y-100101400D01*
X157988500Y-106956000D02*
X158160697Y-106956000D01*
X135350400Y-89149600D02*
X135350400Y-86106000D01*
X148336000Y-107971000D02*
X150725000Y-107971000D01*
X158160697Y-106956000D02*
X158185696Y-106980999D01*
X120355000Y-110756000D02*
X120355000Y-111506000D01*
X141753000Y-109982000D02*
X142230400Y-109504600D01*
X138650400Y-84738800D02*
X138650400Y-85489600D01*
X163691999Y-106364000D02*
X163716999Y-106364000D01*
X141070400Y-106788800D02*
X141070400Y-106272400D01*
X126253997Y-99246003D02*
X126253997Y-105406000D01*
X157338500Y-107606000D02*
X157338500Y-108606000D01*
X160465000Y-83712600D02*
X160465000Y-77336000D01*
X118819000Y-105681000D02*
X135350400Y-89149600D01*
X149860000Y-116840000D02*
X149860000Y-114988000D01*
X146710000Y-85446000D02*
X138650400Y-77386400D01*
X149860000Y-114988000D02*
X148844000Y-113972000D01*
X141070400Y-106272400D02*
X140716000Y-105918000D01*
X142230400Y-104438000D02*
X142230400Y-105063494D01*
X160990400Y-90236400D02*
X160465000Y-89711000D01*
%TO.N,1.8V*%
X146788800Y-107449105D02*
X148035695Y-108696000D01*
X164338000Y-102117305D02*
X164338000Y-98892298D01*
X164338000Y-98892298D02*
X163800000Y-98354298D01*
X163800000Y-96215600D02*
X165064800Y-94950800D01*
X162191305Y-104264000D02*
X164338000Y-102117305D01*
X154200000Y-108696000D02*
X155250000Y-108696000D01*
X160617000Y-104264000D02*
X161922000Y-104264000D01*
X141070400Y-104928800D02*
X142230400Y-106088800D01*
X136950400Y-79837200D02*
X136950400Y-80212998D01*
X156688500Y-106956000D02*
X157388500Y-106256000D01*
X141070400Y-102087200D02*
X141070400Y-104438000D01*
X145128000Y-89604000D02*
X146710000Y-91186000D01*
X148035695Y-108696000D02*
X150800000Y-108696000D01*
X162814000Y-106511306D02*
X162814000Y-105156000D01*
X145128000Y-86940598D02*
X139375400Y-81187998D01*
X163716999Y-107164000D02*
X163466694Y-107164000D01*
X136950400Y-80212998D02*
X137925400Y-81187998D01*
X161922000Y-104264000D02*
X162191305Y-104264000D01*
X156688500Y-107257500D02*
X156688500Y-106956000D01*
X140320400Y-82132998D02*
X140320400Y-86614000D01*
X163800000Y-98354298D02*
X163800000Y-96215600D01*
X141070400Y-104438000D02*
X141070400Y-104928800D01*
X162814000Y-105156000D02*
X161922000Y-104264000D01*
X158625000Y-106256000D02*
X160617000Y-104264000D01*
X140320400Y-101337200D02*
X141070400Y-102087200D01*
X158625000Y-106256000D02*
X157388500Y-106256000D01*
X150800000Y-108696000D02*
X154200000Y-108696000D01*
X140320400Y-86614000D02*
X140320400Y-101337200D01*
X146788800Y-106788800D02*
X146788800Y-107449105D01*
X142230400Y-106788800D02*
X146788800Y-106788800D01*
X139375400Y-81187998D02*
X140320400Y-82132998D01*
X155250000Y-108696000D02*
X156688500Y-107257500D01*
X142230400Y-106088800D02*
X142230400Y-106788800D01*
X146608000Y-91440000D02*
X152908000Y-91440000D01*
X145128000Y-89604000D02*
X145128000Y-86940598D01*
X163466694Y-107164000D02*
X162814000Y-106511306D01*
%TO.N,5V*%
X119130000Y-106131000D02*
X133221242Y-106131000D01*
X163716999Y-107963999D02*
X163716999Y-109063999D01*
X152654000Y-107971000D02*
X154125000Y-107971000D01*
X163016999Y-111983001D02*
X161753000Y-113247000D01*
X173228000Y-88646000D02*
X171724000Y-90150000D01*
X138684000Y-109139600D02*
X141070400Y-109139600D01*
X160782000Y-91436402D02*
X160390402Y-91436402D01*
X119055000Y-107006000D02*
X119055000Y-106206000D01*
X138650400Y-89640400D02*
X139870400Y-90860400D01*
X165374850Y-106931148D02*
X165374850Y-106192851D01*
X119055000Y-106206000D02*
X119130000Y-106131000D01*
X171724000Y-90150000D02*
X168422000Y-90150000D01*
X136075400Y-85613800D02*
X136075400Y-88014600D01*
X168422000Y-90150000D02*
X167132000Y-91440000D01*
X163716999Y-107963999D02*
X163716999Y-108763999D01*
X138751314Y-110298228D02*
X138751314Y-109206914D01*
X133221242Y-106131000D02*
X136229842Y-109139600D01*
X164324001Y-107963999D02*
X164338000Y-107950000D01*
X138751314Y-109206914D02*
X138684000Y-109139600D01*
X160390402Y-91436402D02*
X159190400Y-90236400D01*
X137024600Y-88014600D02*
X138650400Y-89640400D01*
X163716999Y-107963999D02*
X164341999Y-107963999D01*
X139870400Y-107939600D02*
X141070400Y-109139600D01*
X139870400Y-90860400D02*
X139870400Y-107939600D01*
X163716999Y-107963999D02*
X164324001Y-107963999D01*
X154125000Y-107971000D02*
X154200000Y-108046000D01*
X163716999Y-109063999D02*
X163016999Y-109063999D01*
X136950400Y-84738800D02*
X136075400Y-85613800D01*
X136229842Y-109139600D02*
X138684000Y-109139600D01*
X136075400Y-88014600D02*
X137024600Y-88014600D01*
X164341999Y-107963999D02*
X165374850Y-106931148D01*
X163016999Y-109063999D02*
X163016999Y-111983001D01*
X161753000Y-113247000D02*
X141732000Y-113247000D01*
%TO.N,Net-(D1-PadA)*%
X136075400Y-91266200D02*
X135625400Y-91716200D01*
X135625400Y-107159250D02*
X136675000Y-108208850D01*
X135625400Y-91716200D02*
X135625400Y-107159250D01*
X138650400Y-92091200D02*
X137825400Y-91266200D01*
X137825400Y-91266200D02*
X136075400Y-91266200D01*
%TO.N,Net-(JP1-Pad1)*%
X136075400Y-92966200D02*
X136075400Y-102156020D01*
X136075400Y-102156020D02*
X136656330Y-102736950D01*
X136656330Y-102736950D02*
X136975100Y-102736950D01*
X136950400Y-92091200D02*
X136075400Y-92966200D01*
%TO.N,Net-(JP2-Pad1)*%
X138650400Y-94542000D02*
X138650400Y-94352035D01*
X136656330Y-105972150D02*
X136975100Y-105972150D01*
X136547883Y-106080597D02*
X136656330Y-105972150D01*
X138650400Y-94352035D02*
X137980510Y-93682145D01*
X136486669Y-106995214D02*
X136547883Y-106934000D01*
X136547883Y-106934000D02*
X136547883Y-106080597D01*
%TO.N,Net-(U9-LX)*%
X113349604Y-111506000D02*
X118405000Y-111506000D01*
X110744000Y-118618000D02*
X110744000Y-114111604D01*
X167500000Y-92996000D02*
X164815000Y-90311000D01*
X110744000Y-114111604D02*
X113349604Y-111506000D01*
X110826000Y-118536000D02*
X110744000Y-118618000D01*
X168148000Y-114808000D02*
X167500000Y-114160000D01*
X167500000Y-114160000D02*
X167500000Y-92996000D01*
%TO.N,Net-(U9-FB)*%
X135889004Y-90816200D02*
X136950400Y-90816200D01*
X136950400Y-89640400D02*
X136950400Y-89452400D01*
X127254000Y-106934000D02*
X127182000Y-107006000D01*
X127254000Y-100746000D02*
X135175400Y-92824600D01*
X135175400Y-91529804D02*
X135889004Y-90816200D01*
X138428653Y-87411347D02*
X138650400Y-87189600D01*
X127182000Y-107006000D02*
X120355000Y-107006000D01*
X135175400Y-92824600D02*
X135175400Y-91529804D01*
X138428653Y-88393347D02*
X138428653Y-87411347D01*
X136950400Y-89452400D02*
X136398000Y-88900000D01*
X136950400Y-90816200D02*
X136950400Y-89640400D01*
X127254000Y-105406000D02*
X127254000Y-100746000D01*
%TO.N,LV_INT*%
X141045400Y-97790000D02*
X159790000Y-97790000D01*
X141045400Y-95642002D02*
X162584900Y-95642002D01*
X138050402Y-95642002D02*
X138430000Y-95642002D01*
X138650400Y-98010400D02*
X138938000Y-98298000D01*
X162089000Y-105739121D02*
X161492121Y-105739121D01*
X138650400Y-95862402D02*
X138430000Y-95642002D01*
X165064800Y-104841199D02*
X165064800Y-97830400D01*
X161317000Y-106364000D02*
X160460458Y-106364000D01*
X162034108Y-100034108D02*
X162034108Y-103360108D01*
X164540902Y-93686000D02*
X165588698Y-93686000D01*
X160460458Y-106364000D02*
X160206686Y-106617772D01*
X138650400Y-97743600D02*
X138650400Y-98010400D01*
X138650400Y-96992800D02*
X138650400Y-97743600D01*
X164341999Y-105564000D02*
X165064800Y-104841199D01*
X161492121Y-105739121D02*
X161317000Y-105564000D01*
X136950400Y-94542000D02*
X138050402Y-95642002D01*
X154823195Y-109445999D02*
X154299999Y-109445999D01*
X163716999Y-105564000D02*
X164341999Y-105564000D01*
X154299999Y-109445999D02*
X154200000Y-109346000D01*
X162584900Y-95642002D02*
X164540902Y-93686000D01*
X166329600Y-94426902D02*
X166329600Y-96565600D01*
X138650400Y-97743600D02*
X136950400Y-99443600D01*
X159790000Y-97790000D02*
X162034108Y-100034108D01*
X166329600Y-96565600D02*
X165064800Y-97830400D01*
X138650400Y-96992800D02*
X138650400Y-95862402D01*
X165588698Y-93686000D02*
X166329600Y-94426902D01*
X162034108Y-103360108D02*
X162052000Y-103378000D01*
%TO.N,Net-(U7-RESET)*%
X169000000Y-113848948D02*
X168873000Y-113975948D01*
X170688000Y-93726000D02*
X169000000Y-95414000D01*
X119705000Y-107006000D02*
X119705000Y-107808000D01*
X169000000Y-95414000D02*
X169000000Y-113848948D01*
X119705000Y-107808000D02*
X120101000Y-108204000D01*
%TO.N,/SDA*%
X152357200Y-101557200D02*
X152400000Y-101600000D01*
X162465000Y-83712600D02*
X162465000Y-87101000D01*
X152357200Y-99311200D02*
X152357200Y-101557200D01*
X162465000Y-87101000D02*
X162190000Y-87376000D01*
X162465000Y-83712600D02*
X162465000Y-77336000D01*
%TO.N,MC_SCL*%
X156119727Y-100420273D02*
X156413727Y-100420273D01*
X162834774Y-102984135D02*
X162754454Y-103064455D01*
X163465000Y-83712600D02*
X163677600Y-83500000D01*
X162754454Y-103064455D02*
X162759108Y-103059801D01*
X156119727Y-100420273D02*
X154940000Y-101600000D01*
X162834774Y-96322582D02*
X162834774Y-102984135D01*
X161056338Y-103471073D02*
X159464527Y-103471073D01*
X165907653Y-83907653D02*
X165907653Y-90378347D01*
X163677600Y-83500000D02*
X165500000Y-83500000D01*
X165500000Y-83500000D02*
X165907653Y-83907653D01*
X162759108Y-103059801D02*
X162759108Y-102670891D01*
X136950400Y-96221600D02*
X137160000Y-96012000D01*
X163825347Y-93376249D02*
X162639310Y-94562286D01*
X141224000Y-96774000D02*
X162383356Y-96774000D01*
X163465000Y-83712600D02*
X163465000Y-77336000D01*
X162383356Y-96774000D02*
X162834774Y-96322582D01*
X156413727Y-100420273D02*
X159464527Y-103471073D01*
X136950400Y-96992800D02*
X136950400Y-96221600D01*
X163825347Y-92261000D02*
X163825347Y-93376249D01*
%TD*%
M02*
