%TF.GenerationSoftware,KiCad,Pcbnew,8.0.5*%
%TF.CreationDate,2024-12-11T22:42:58-06:00*%
%TF.ProjectId,4011MS2,34303131-4d53-4322-9e6b-696361645f70,1.0*%
%TF.SameCoordinates,Original*%
%TF.FileFunction,Paste,Top*%
%TF.FilePolarity,Positive*%
%FSLAX46Y46*%
G04 Gerber Fmt 4.6, Leading zero omitted, Abs format (unit mm)*
G04 Created by KiCad (PCBNEW 8.0.5) date 2024-12-11 22:42:58*
%MOMM*%
%LPD*%
G01*
G04 APERTURE LIST*
G04 Aperture macros list*
%AMRoundRect*
0 Rectangle with rounded corners*
0 $1 Rounding radius*
0 $2 $3 $4 $5 $6 $7 $8 $9 X,Y pos of 4 corners*
0 Add a 4 corners polygon primitive as box body*
4,1,4,$2,$3,$4,$5,$6,$7,$8,$9,$2,$3,0*
0 Add four circle primitives for the rounded corners*
1,1,$1+$1,$2,$3*
1,1,$1+$1,$4,$5*
1,1,$1+$1,$6,$7*
1,1,$1+$1,$8,$9*
0 Add four rect primitives between the rounded corners*
20,1,$1+$1,$2,$3,$4,$5,0*
20,1,$1+$1,$4,$5,$6,$7,0*
20,1,$1+$1,$6,$7,$8,$9,0*
20,1,$1+$1,$8,$9,$2,$3,0*%
G04 Aperture macros list end*
%ADD10C,0.000000*%
%ADD11R,0.850000X0.900000*%
%ADD12R,1.100000X1.000000*%
%ADD13R,1.600000X0.300000*%
%ADD14R,0.600000X1.350000*%
%ADD15R,1.200000X2.000000*%
%ADD16R,0.400000X1.100000*%
%ADD17R,0.800000X1.800000*%
%ADD18RoundRect,0.150000X-0.350000X0.350000X-0.350000X-0.350000X0.350000X-0.350000X0.350000X0.350000X0*%
%ADD19R,0.750000X0.350000*%
%ADD20R,0.800000X1.200000*%
%ADD21RoundRect,0.375000X-0.625000X-0.375000X0.625000X-0.375000X0.625000X0.375000X-0.625000X0.375000X0*%
%ADD22RoundRect,0.500000X-0.500000X-1.400000X0.500000X-1.400000X0.500000X1.400000X-0.500000X1.400000X0*%
G04 APERTURE END LIST*
D10*
%TO.C,U8*%
G36*
X156888500Y-107331000D02*
G01*
X156488500Y-107331000D01*
X156488500Y-106581000D01*
X156888500Y-106581000D01*
X156888500Y-107331000D01*
G37*
G36*
X156830500Y-108949400D02*
G01*
X156500300Y-108949400D01*
X156500300Y-108263600D01*
X156830500Y-108263600D01*
X156830500Y-108949400D01*
G37*
G36*
X157503600Y-108949400D02*
G01*
X157173400Y-108949400D01*
X157173400Y-108263600D01*
X157503600Y-108263600D01*
X157503600Y-108949400D01*
G37*
G36*
X158188500Y-107331000D02*
G01*
X157788500Y-107331000D01*
X157788500Y-106581000D01*
X158188500Y-106581000D01*
X158188500Y-107331000D01*
G37*
G36*
X158176700Y-108949400D02*
G01*
X157846500Y-108949400D01*
X157846500Y-108263600D01*
X158176700Y-108263600D01*
X158176700Y-108949400D01*
G37*
%TD*%
D11*
%TO.C,C9*%
X141070400Y-106788800D03*
X142230400Y-106788800D03*
%TD*%
D12*
%TO.C,C8*%
X136950400Y-84738800D03*
X138650400Y-84738800D03*
%TD*%
D13*
%TO.C,U11*%
X150800000Y-107396000D03*
X150800000Y-108046000D03*
X150800000Y-108696000D03*
X150800000Y-109346000D03*
X154200000Y-109346000D03*
X154200000Y-108696000D03*
X154200000Y-108046000D03*
X154200000Y-107396000D03*
%TD*%
D11*
%TO.C,C2*%
X141070400Y-99736400D03*
X142230400Y-99736400D03*
%TD*%
D14*
%TO.C,J6*%
X160465000Y-77336000D03*
X161465000Y-77336000D03*
X162465000Y-77336000D03*
X163465000Y-77336000D03*
D15*
X164765000Y-81011000D03*
X159165000Y-81011000D03*
%TD*%
D12*
%TO.C,R3*%
X136950400Y-92091200D03*
X138650400Y-92091200D03*
%TD*%
D16*
%TO.C,U2*%
X118405000Y-111506000D03*
X119055000Y-111506000D03*
X119705000Y-111506000D03*
X120355000Y-111506000D03*
X120355000Y-107006000D03*
X119705000Y-107006000D03*
X119055000Y-107006000D03*
X118405000Y-107006000D03*
%TD*%
D12*
%TO.C,C4*%
X136950400Y-79837200D03*
X138650400Y-79837200D03*
%TD*%
%TO.C,C1*%
X136950400Y-77386400D03*
X138650400Y-77386400D03*
%TD*%
%TO.C,R6*%
X136950400Y-99443600D03*
X138650400Y-99443600D03*
%TD*%
D17*
%TO.C,L1*%
X163015000Y-90311000D03*
X164815000Y-90311000D03*
%TD*%
D11*
%TO.C,C3*%
X141070400Y-102087200D03*
X142230400Y-102087200D03*
%TD*%
D18*
%TO.C,D1*%
X136675000Y-108208850D03*
X138429000Y-108208850D03*
%TD*%
D12*
%TO.C,R1*%
X136950400Y-87189600D03*
X138650400Y-87189600D03*
%TD*%
D11*
%TO.C,C7*%
X141070400Y-104438000D03*
X142230400Y-104438000D03*
%TD*%
D19*
%TO.C,U10*%
X161317000Y-104764000D03*
X161317000Y-105564000D03*
X161317000Y-106364000D03*
X161317000Y-107164000D03*
X161317000Y-107963999D03*
X161317000Y-108763999D03*
X161317000Y-109563999D03*
X163716999Y-109563999D03*
X163716999Y-108763999D03*
X163716999Y-107963999D03*
X163716999Y-107164000D03*
X163716999Y-106364000D03*
X163716999Y-105564000D03*
X163716999Y-104764000D03*
%TD*%
D12*
%TO.C,C5*%
X136950400Y-82288000D03*
X138650400Y-82288000D03*
%TD*%
D14*
%TO.C,J16*%
X160465000Y-83712600D03*
X161465000Y-83712600D03*
X162465000Y-83712600D03*
X163465000Y-83712600D03*
D15*
X164765000Y-87387600D03*
X159165000Y-87387600D03*
%TD*%
D12*
%TO.C,R5*%
X136950400Y-96992800D03*
X138650400Y-96992800D03*
%TD*%
D20*
%TO.C,C6*%
X159190400Y-90236400D03*
X160990400Y-90236400D03*
%TD*%
D12*
%TO.C,R4*%
X136950400Y-94542000D03*
X138650400Y-94542000D03*
%TD*%
D21*
%TO.C,U12*%
X146710000Y-88886000D03*
X146710000Y-91186000D03*
D22*
X153010000Y-91186000D03*
D21*
X146710000Y-93486000D03*
%TD*%
D11*
%TO.C,C10*%
X141070400Y-109139600D03*
X142230400Y-109139600D03*
%TD*%
D12*
%TO.C,R2*%
X136950400Y-89640400D03*
X138650400Y-89640400D03*
%TD*%
M02*
