%TF.GenerationSoftware,KiCad,Pcbnew,8.0.5*%
%TF.CreationDate,2024-12-11T22:42:58-06:00*%
%TF.ProjectId,4011MS2,34303131-4d53-4322-9e6b-696361645f70,1.0*%
%TF.SameCoordinates,Original*%
%TF.FileFunction,Legend,Top*%
%TF.FilePolarity,Positive*%
%FSLAX46Y46*%
G04 Gerber Fmt 4.6, Leading zero omitted, Abs format (unit mm)*
G04 Created by KiCad (PCBNEW 8.0.5) date 2024-12-11 22:42:58*
%MOMM*%
%LPD*%
G01*
G04 APERTURE LIST*
%ADD10C,0.121920*%
%ADD11C,0.150000*%
%ADD12C,0.032512*%
%ADD13C,0.030480*%
%ADD14C,0.080000*%
%ADD15C,0.120000*%
%ADD16C,0.203200*%
%ADD17C,0.152400*%
%ADD18C,0.406400*%
%ADD19C,0.127000*%
%ADD20C,0.254000*%
G04 APERTURE END LIST*
D10*
X141569120Y-105914332D02*
X141545897Y-105937555D01*
X141545897Y-105937555D02*
X141476229Y-105960777D01*
X141476229Y-105960777D02*
X141429783Y-105960777D01*
X141429783Y-105960777D02*
X141360114Y-105937555D01*
X141360114Y-105937555D02*
X141313669Y-105891109D01*
X141313669Y-105891109D02*
X141290446Y-105844663D01*
X141290446Y-105844663D02*
X141267223Y-105751772D01*
X141267223Y-105751772D02*
X141267223Y-105682103D01*
X141267223Y-105682103D02*
X141290446Y-105589212D01*
X141290446Y-105589212D02*
X141313669Y-105542766D01*
X141313669Y-105542766D02*
X141360114Y-105496320D01*
X141360114Y-105496320D02*
X141429783Y-105473097D01*
X141429783Y-105473097D02*
X141476229Y-105473097D01*
X141476229Y-105473097D02*
X141545897Y-105496320D01*
X141545897Y-105496320D02*
X141569120Y-105519543D01*
X141801349Y-105960777D02*
X141894240Y-105960777D01*
X141894240Y-105960777D02*
X141940686Y-105937555D01*
X141940686Y-105937555D02*
X141963909Y-105914332D01*
X141963909Y-105914332D02*
X142010354Y-105844663D01*
X142010354Y-105844663D02*
X142033577Y-105751772D01*
X142033577Y-105751772D02*
X142033577Y-105565989D01*
X142033577Y-105565989D02*
X142010354Y-105519543D01*
X142010354Y-105519543D02*
X141987132Y-105496320D01*
X141987132Y-105496320D02*
X141940686Y-105473097D01*
X141940686Y-105473097D02*
X141847794Y-105473097D01*
X141847794Y-105473097D02*
X141801349Y-105496320D01*
X141801349Y-105496320D02*
X141778126Y-105519543D01*
X141778126Y-105519543D02*
X141754903Y-105565989D01*
X141754903Y-105565989D02*
X141754903Y-105682103D01*
X141754903Y-105682103D02*
X141778126Y-105728549D01*
X141778126Y-105728549D02*
X141801349Y-105751772D01*
X141801349Y-105751772D02*
X141847794Y-105774995D01*
X141847794Y-105774995D02*
X141940686Y-105774995D01*
X141940686Y-105774995D02*
X141987132Y-105751772D01*
X141987132Y-105751772D02*
X142010354Y-105728549D01*
X142010354Y-105728549D02*
X142033577Y-105682103D01*
X137719120Y-83864332D02*
X137695897Y-83887555D01*
X137695897Y-83887555D02*
X137626229Y-83910777D01*
X137626229Y-83910777D02*
X137579783Y-83910777D01*
X137579783Y-83910777D02*
X137510114Y-83887555D01*
X137510114Y-83887555D02*
X137463669Y-83841109D01*
X137463669Y-83841109D02*
X137440446Y-83794663D01*
X137440446Y-83794663D02*
X137417223Y-83701772D01*
X137417223Y-83701772D02*
X137417223Y-83632103D01*
X137417223Y-83632103D02*
X137440446Y-83539212D01*
X137440446Y-83539212D02*
X137463669Y-83492766D01*
X137463669Y-83492766D02*
X137510114Y-83446320D01*
X137510114Y-83446320D02*
X137579783Y-83423097D01*
X137579783Y-83423097D02*
X137626229Y-83423097D01*
X137626229Y-83423097D02*
X137695897Y-83446320D01*
X137695897Y-83446320D02*
X137719120Y-83469543D01*
X137997794Y-83632103D02*
X137951349Y-83608880D01*
X137951349Y-83608880D02*
X137928126Y-83585657D01*
X137928126Y-83585657D02*
X137904903Y-83539212D01*
X137904903Y-83539212D02*
X137904903Y-83515989D01*
X137904903Y-83515989D02*
X137928126Y-83469543D01*
X137928126Y-83469543D02*
X137951349Y-83446320D01*
X137951349Y-83446320D02*
X137997794Y-83423097D01*
X137997794Y-83423097D02*
X138090686Y-83423097D01*
X138090686Y-83423097D02*
X138137132Y-83446320D01*
X138137132Y-83446320D02*
X138160354Y-83469543D01*
X138160354Y-83469543D02*
X138183577Y-83515989D01*
X138183577Y-83515989D02*
X138183577Y-83539212D01*
X138183577Y-83539212D02*
X138160354Y-83585657D01*
X138160354Y-83585657D02*
X138137132Y-83608880D01*
X138137132Y-83608880D02*
X138090686Y-83632103D01*
X138090686Y-83632103D02*
X137997794Y-83632103D01*
X137997794Y-83632103D02*
X137951349Y-83655326D01*
X137951349Y-83655326D02*
X137928126Y-83678549D01*
X137928126Y-83678549D02*
X137904903Y-83724995D01*
X137904903Y-83724995D02*
X137904903Y-83817886D01*
X137904903Y-83817886D02*
X137928126Y-83864332D01*
X137928126Y-83864332D02*
X137951349Y-83887555D01*
X137951349Y-83887555D02*
X137997794Y-83910777D01*
X137997794Y-83910777D02*
X138090686Y-83910777D01*
X138090686Y-83910777D02*
X138137132Y-83887555D01*
X138137132Y-83887555D02*
X138160354Y-83864332D01*
X138160354Y-83864332D02*
X138183577Y-83817886D01*
X138183577Y-83817886D02*
X138183577Y-83724995D01*
X138183577Y-83724995D02*
X138160354Y-83678549D01*
X138160354Y-83678549D02*
X138137132Y-83655326D01*
X138137132Y-83655326D02*
X138090686Y-83632103D01*
D11*
X151261905Y-105425819D02*
X151261905Y-106235342D01*
X151261905Y-106235342D02*
X151309524Y-106330580D01*
X151309524Y-106330580D02*
X151357143Y-106378200D01*
X151357143Y-106378200D02*
X151452381Y-106425819D01*
X151452381Y-106425819D02*
X151642857Y-106425819D01*
X151642857Y-106425819D02*
X151738095Y-106378200D01*
X151738095Y-106378200D02*
X151785714Y-106330580D01*
X151785714Y-106330580D02*
X151833333Y-106235342D01*
X151833333Y-106235342D02*
X151833333Y-105425819D01*
X152833333Y-106425819D02*
X152261905Y-106425819D01*
X152547619Y-106425819D02*
X152547619Y-105425819D01*
X152547619Y-105425819D02*
X152452381Y-105568676D01*
X152452381Y-105568676D02*
X152357143Y-105663914D01*
X152357143Y-105663914D02*
X152261905Y-105711533D01*
X153785714Y-106425819D02*
X153214286Y-106425819D01*
X153500000Y-106425819D02*
X153500000Y-105425819D01*
X153500000Y-105425819D02*
X153404762Y-105568676D01*
X153404762Y-105568676D02*
X153309524Y-105663914D01*
X153309524Y-105663914D02*
X153214286Y-105711533D01*
D10*
X141569120Y-98861932D02*
X141545897Y-98885155D01*
X141545897Y-98885155D02*
X141476229Y-98908377D01*
X141476229Y-98908377D02*
X141429783Y-98908377D01*
X141429783Y-98908377D02*
X141360114Y-98885155D01*
X141360114Y-98885155D02*
X141313669Y-98838709D01*
X141313669Y-98838709D02*
X141290446Y-98792263D01*
X141290446Y-98792263D02*
X141267223Y-98699372D01*
X141267223Y-98699372D02*
X141267223Y-98629703D01*
X141267223Y-98629703D02*
X141290446Y-98536812D01*
X141290446Y-98536812D02*
X141313669Y-98490366D01*
X141313669Y-98490366D02*
X141360114Y-98443920D01*
X141360114Y-98443920D02*
X141429783Y-98420697D01*
X141429783Y-98420697D02*
X141476229Y-98420697D01*
X141476229Y-98420697D02*
X141545897Y-98443920D01*
X141545897Y-98443920D02*
X141569120Y-98467143D01*
X141754903Y-98467143D02*
X141778126Y-98443920D01*
X141778126Y-98443920D02*
X141824572Y-98420697D01*
X141824572Y-98420697D02*
X141940686Y-98420697D01*
X141940686Y-98420697D02*
X141987132Y-98443920D01*
X141987132Y-98443920D02*
X142010354Y-98467143D01*
X142010354Y-98467143D02*
X142033577Y-98513589D01*
X142033577Y-98513589D02*
X142033577Y-98560035D01*
X142033577Y-98560035D02*
X142010354Y-98629703D01*
X142010354Y-98629703D02*
X141731680Y-98908377D01*
X141731680Y-98908377D02*
X142033577Y-98908377D01*
X160903661Y-78941297D02*
X160903661Y-79289640D01*
X160903661Y-79289640D02*
X160880438Y-79359309D01*
X160880438Y-79359309D02*
X160833992Y-79405755D01*
X160833992Y-79405755D02*
X160764324Y-79428977D01*
X160764324Y-79428977D02*
X160717878Y-79428977D01*
X161344896Y-78941297D02*
X161252004Y-78941297D01*
X161252004Y-78941297D02*
X161205558Y-78964520D01*
X161205558Y-78964520D02*
X161182336Y-78987743D01*
X161182336Y-78987743D02*
X161135890Y-79057412D01*
X161135890Y-79057412D02*
X161112667Y-79150303D01*
X161112667Y-79150303D02*
X161112667Y-79336086D01*
X161112667Y-79336086D02*
X161135890Y-79382532D01*
X161135890Y-79382532D02*
X161159113Y-79405755D01*
X161159113Y-79405755D02*
X161205558Y-79428977D01*
X161205558Y-79428977D02*
X161298450Y-79428977D01*
X161298450Y-79428977D02*
X161344896Y-79405755D01*
X161344896Y-79405755D02*
X161368118Y-79382532D01*
X161368118Y-79382532D02*
X161391341Y-79336086D01*
X161391341Y-79336086D02*
X161391341Y-79219972D01*
X161391341Y-79219972D02*
X161368118Y-79173526D01*
X161368118Y-79173526D02*
X161344896Y-79150303D01*
X161344896Y-79150303D02*
X161298450Y-79127080D01*
X161298450Y-79127080D02*
X161205558Y-79127080D01*
X161205558Y-79127080D02*
X161159113Y-79150303D01*
X161159113Y-79150303D02*
X161135890Y-79173526D01*
X161135890Y-79173526D02*
X161112667Y-79219972D01*
D11*
X131744819Y-117649523D02*
X132459104Y-117649523D01*
X132459104Y-117649523D02*
X132601961Y-117697142D01*
X132601961Y-117697142D02*
X132697200Y-117792380D01*
X132697200Y-117792380D02*
X132744819Y-117935237D01*
X132744819Y-117935237D02*
X132744819Y-118030475D01*
X132744819Y-116649523D02*
X132744819Y-117220951D01*
X132744819Y-116935237D02*
X131744819Y-116935237D01*
X131744819Y-116935237D02*
X131887676Y-117030475D01*
X131887676Y-117030475D02*
X131982914Y-117125713D01*
X131982914Y-117125713D02*
X132030533Y-117220951D01*
X131744819Y-116030475D02*
X131744819Y-115935237D01*
X131744819Y-115935237D02*
X131792438Y-115839999D01*
X131792438Y-115839999D02*
X131840057Y-115792380D01*
X131840057Y-115792380D02*
X131935295Y-115744761D01*
X131935295Y-115744761D02*
X132125771Y-115697142D01*
X132125771Y-115697142D02*
X132363866Y-115697142D01*
X132363866Y-115697142D02*
X132554342Y-115744761D01*
X132554342Y-115744761D02*
X132649580Y-115792380D01*
X132649580Y-115792380D02*
X132697200Y-115839999D01*
X132697200Y-115839999D02*
X132744819Y-115935237D01*
X132744819Y-115935237D02*
X132744819Y-116030475D01*
X132744819Y-116030475D02*
X132697200Y-116125713D01*
X132697200Y-116125713D02*
X132649580Y-116173332D01*
X132649580Y-116173332D02*
X132554342Y-116220951D01*
X132554342Y-116220951D02*
X132363866Y-116268570D01*
X132363866Y-116268570D02*
X132125771Y-116268570D01*
X132125771Y-116268570D02*
X131935295Y-116220951D01*
X131935295Y-116220951D02*
X131840057Y-116173332D01*
X131840057Y-116173332D02*
X131792438Y-116125713D01*
X131792438Y-116125713D02*
X131744819Y-116030475D01*
D10*
X137719120Y-91263177D02*
X137556560Y-91030949D01*
X137440446Y-91263177D02*
X137440446Y-90775497D01*
X137440446Y-90775497D02*
X137626229Y-90775497D01*
X137626229Y-90775497D02*
X137672674Y-90798720D01*
X137672674Y-90798720D02*
X137695897Y-90821943D01*
X137695897Y-90821943D02*
X137719120Y-90868389D01*
X137719120Y-90868389D02*
X137719120Y-90938057D01*
X137719120Y-90938057D02*
X137695897Y-90984503D01*
X137695897Y-90984503D02*
X137672674Y-91007726D01*
X137672674Y-91007726D02*
X137626229Y-91030949D01*
X137626229Y-91030949D02*
X137440446Y-91030949D01*
X137881680Y-90775497D02*
X138183577Y-90775497D01*
X138183577Y-90775497D02*
X138021017Y-90961280D01*
X138021017Y-90961280D02*
X138090686Y-90961280D01*
X138090686Y-90961280D02*
X138137132Y-90984503D01*
X138137132Y-90984503D02*
X138160354Y-91007726D01*
X138160354Y-91007726D02*
X138183577Y-91054172D01*
X138183577Y-91054172D02*
X138183577Y-91170286D01*
X138183577Y-91170286D02*
X138160354Y-91216732D01*
X138160354Y-91216732D02*
X138137132Y-91239955D01*
X138137132Y-91239955D02*
X138090686Y-91263177D01*
X138090686Y-91263177D02*
X137951349Y-91263177D01*
X137951349Y-91263177D02*
X137904903Y-91239955D01*
X137904903Y-91239955D02*
X137881680Y-91216732D01*
D12*
X117157665Y-109389590D02*
X117460336Y-109389590D01*
X117460336Y-109389590D02*
X117495944Y-109371785D01*
X117495944Y-109371785D02*
X117513749Y-109353981D01*
X117513749Y-109353981D02*
X117531553Y-109318373D01*
X117531553Y-109318373D02*
X117531553Y-109247156D01*
X117531553Y-109247156D02*
X117513749Y-109211548D01*
X117513749Y-109211548D02*
X117495944Y-109193743D01*
X117495944Y-109193743D02*
X117460336Y-109175939D01*
X117460336Y-109175939D02*
X117157665Y-109175939D01*
X117193273Y-109015702D02*
X117175469Y-108997898D01*
X117175469Y-108997898D02*
X117157665Y-108962289D01*
X117157665Y-108962289D02*
X117157665Y-108873268D01*
X117157665Y-108873268D02*
X117175469Y-108837660D01*
X117175469Y-108837660D02*
X117193273Y-108819856D01*
X117193273Y-108819856D02*
X117228881Y-108802051D01*
X117228881Y-108802051D02*
X117264490Y-108802051D01*
X117264490Y-108802051D02*
X117317902Y-108819856D01*
X117317902Y-108819856D02*
X117531553Y-109033506D01*
X117531553Y-109033506D02*
X117531553Y-108802051D01*
D10*
X137719120Y-78962732D02*
X137695897Y-78985955D01*
X137695897Y-78985955D02*
X137626229Y-79009177D01*
X137626229Y-79009177D02*
X137579783Y-79009177D01*
X137579783Y-79009177D02*
X137510114Y-78985955D01*
X137510114Y-78985955D02*
X137463669Y-78939509D01*
X137463669Y-78939509D02*
X137440446Y-78893063D01*
X137440446Y-78893063D02*
X137417223Y-78800172D01*
X137417223Y-78800172D02*
X137417223Y-78730503D01*
X137417223Y-78730503D02*
X137440446Y-78637612D01*
X137440446Y-78637612D02*
X137463669Y-78591166D01*
X137463669Y-78591166D02*
X137510114Y-78544720D01*
X137510114Y-78544720D02*
X137579783Y-78521497D01*
X137579783Y-78521497D02*
X137626229Y-78521497D01*
X137626229Y-78521497D02*
X137695897Y-78544720D01*
X137695897Y-78544720D02*
X137719120Y-78567943D01*
X138137132Y-78684057D02*
X138137132Y-79009177D01*
X138021017Y-78498275D02*
X137904903Y-78846617D01*
X137904903Y-78846617D02*
X138206800Y-78846617D01*
D11*
X149524819Y-69389523D02*
X150239104Y-69389523D01*
X150239104Y-69389523D02*
X150381961Y-69437142D01*
X150381961Y-69437142D02*
X150477200Y-69532380D01*
X150477200Y-69532380D02*
X150524819Y-69675237D01*
X150524819Y-69675237D02*
X150524819Y-69770475D01*
X150524819Y-68389523D02*
X150524819Y-68960951D01*
X150524819Y-68675237D02*
X149524819Y-68675237D01*
X149524819Y-68675237D02*
X149667676Y-68770475D01*
X149667676Y-68770475D02*
X149762914Y-68865713D01*
X149762914Y-68865713D02*
X149810533Y-68960951D01*
X149858152Y-67532380D02*
X150524819Y-67532380D01*
X149477200Y-67770475D02*
X150191485Y-68008570D01*
X150191485Y-68008570D02*
X150191485Y-67389523D01*
D10*
X137719120Y-76511932D02*
X137695897Y-76535155D01*
X137695897Y-76535155D02*
X137626229Y-76558377D01*
X137626229Y-76558377D02*
X137579783Y-76558377D01*
X137579783Y-76558377D02*
X137510114Y-76535155D01*
X137510114Y-76535155D02*
X137463669Y-76488709D01*
X137463669Y-76488709D02*
X137440446Y-76442263D01*
X137440446Y-76442263D02*
X137417223Y-76349372D01*
X137417223Y-76349372D02*
X137417223Y-76279703D01*
X137417223Y-76279703D02*
X137440446Y-76186812D01*
X137440446Y-76186812D02*
X137463669Y-76140366D01*
X137463669Y-76140366D02*
X137510114Y-76093920D01*
X137510114Y-76093920D02*
X137579783Y-76070697D01*
X137579783Y-76070697D02*
X137626229Y-76070697D01*
X137626229Y-76070697D02*
X137695897Y-76093920D01*
X137695897Y-76093920D02*
X137719120Y-76117143D01*
X138183577Y-76558377D02*
X137904903Y-76558377D01*
X138044240Y-76558377D02*
X138044240Y-76070697D01*
X138044240Y-76070697D02*
X137997794Y-76140366D01*
X137997794Y-76140366D02*
X137951349Y-76186812D01*
X137951349Y-76186812D02*
X137904903Y-76210035D01*
X137719120Y-98615577D02*
X137556560Y-98383349D01*
X137440446Y-98615577D02*
X137440446Y-98127897D01*
X137440446Y-98127897D02*
X137626229Y-98127897D01*
X137626229Y-98127897D02*
X137672674Y-98151120D01*
X137672674Y-98151120D02*
X137695897Y-98174343D01*
X137695897Y-98174343D02*
X137719120Y-98220789D01*
X137719120Y-98220789D02*
X137719120Y-98290457D01*
X137719120Y-98290457D02*
X137695897Y-98336903D01*
X137695897Y-98336903D02*
X137672674Y-98360126D01*
X137672674Y-98360126D02*
X137626229Y-98383349D01*
X137626229Y-98383349D02*
X137440446Y-98383349D01*
X138137132Y-98127897D02*
X138044240Y-98127897D01*
X138044240Y-98127897D02*
X137997794Y-98151120D01*
X137997794Y-98151120D02*
X137974572Y-98174343D01*
X137974572Y-98174343D02*
X137928126Y-98244012D01*
X137928126Y-98244012D02*
X137904903Y-98336903D01*
X137904903Y-98336903D02*
X137904903Y-98522686D01*
X137904903Y-98522686D02*
X137928126Y-98569132D01*
X137928126Y-98569132D02*
X137951349Y-98592355D01*
X137951349Y-98592355D02*
X137997794Y-98615577D01*
X137997794Y-98615577D02*
X138090686Y-98615577D01*
X138090686Y-98615577D02*
X138137132Y-98592355D01*
X138137132Y-98592355D02*
X138160354Y-98569132D01*
X138160354Y-98569132D02*
X138183577Y-98522686D01*
X138183577Y-98522686D02*
X138183577Y-98406572D01*
X138183577Y-98406572D02*
X138160354Y-98360126D01*
X138160354Y-98360126D02*
X138137132Y-98336903D01*
X138137132Y-98336903D02*
X138090686Y-98313680D01*
X138090686Y-98313680D02*
X137997794Y-98313680D01*
X137997794Y-98313680D02*
X137951349Y-98336903D01*
X137951349Y-98336903D02*
X137928126Y-98360126D01*
X137928126Y-98360126D02*
X137904903Y-98406572D01*
D11*
X122600819Y-117173333D02*
X123315104Y-117173333D01*
X123315104Y-117173333D02*
X123457961Y-117220952D01*
X123457961Y-117220952D02*
X123553200Y-117316190D01*
X123553200Y-117316190D02*
X123600819Y-117459047D01*
X123600819Y-117459047D02*
X123600819Y-117554285D01*
X123600819Y-116649523D02*
X123600819Y-116459047D01*
X123600819Y-116459047D02*
X123553200Y-116363809D01*
X123553200Y-116363809D02*
X123505580Y-116316190D01*
X123505580Y-116316190D02*
X123362723Y-116220952D01*
X123362723Y-116220952D02*
X123172247Y-116173333D01*
X123172247Y-116173333D02*
X122791295Y-116173333D01*
X122791295Y-116173333D02*
X122696057Y-116220952D01*
X122696057Y-116220952D02*
X122648438Y-116268571D01*
X122648438Y-116268571D02*
X122600819Y-116363809D01*
X122600819Y-116363809D02*
X122600819Y-116554285D01*
X122600819Y-116554285D02*
X122648438Y-116649523D01*
X122648438Y-116649523D02*
X122696057Y-116697142D01*
X122696057Y-116697142D02*
X122791295Y-116744761D01*
X122791295Y-116744761D02*
X123029390Y-116744761D01*
X123029390Y-116744761D02*
X123124628Y-116697142D01*
X123124628Y-116697142D02*
X123172247Y-116649523D01*
X123172247Y-116649523D02*
X123219866Y-116554285D01*
X123219866Y-116554285D02*
X123219866Y-116363809D01*
X123219866Y-116363809D02*
X123172247Y-116268571D01*
X123172247Y-116268571D02*
X123124628Y-116220952D01*
X123124628Y-116220952D02*
X123029390Y-116173333D01*
D13*
X163315423Y-88996518D02*
X163148509Y-88996518D01*
X163148509Y-88996518D02*
X163148509Y-88645998D01*
X163615868Y-88996518D02*
X163415571Y-88996518D01*
X163515720Y-88996518D02*
X163515720Y-88645998D01*
X163515720Y-88645998D02*
X163482337Y-88696072D01*
X163482337Y-88696072D02*
X163448954Y-88729455D01*
X163448954Y-88729455D02*
X163415571Y-88746147D01*
D11*
X154858819Y-117903523D02*
X155573104Y-117903523D01*
X155573104Y-117903523D02*
X155715961Y-117951142D01*
X155715961Y-117951142D02*
X155811200Y-118046380D01*
X155811200Y-118046380D02*
X155858819Y-118189237D01*
X155858819Y-118189237D02*
X155858819Y-118284475D01*
X155858819Y-116903523D02*
X155858819Y-117474951D01*
X155858819Y-117189237D02*
X154858819Y-117189237D01*
X154858819Y-117189237D02*
X155001676Y-117284475D01*
X155001676Y-117284475D02*
X155096914Y-117379713D01*
X155096914Y-117379713D02*
X155144533Y-117474951D01*
X155858819Y-115951142D02*
X155858819Y-116522570D01*
X155858819Y-116236856D02*
X154858819Y-116236856D01*
X154858819Y-116236856D02*
X155001676Y-116332094D01*
X155001676Y-116332094D02*
X155096914Y-116427332D01*
X155096914Y-116427332D02*
X155144533Y-116522570D01*
D10*
X164130461Y-96133697D02*
X164130461Y-96482040D01*
X164130461Y-96482040D02*
X164107238Y-96551709D01*
X164107238Y-96551709D02*
X164060792Y-96598155D01*
X164060792Y-96598155D02*
X163991124Y-96621377D01*
X163991124Y-96621377D02*
X163944678Y-96621377D01*
X164339467Y-96180143D02*
X164362690Y-96156920D01*
X164362690Y-96156920D02*
X164409136Y-96133697D01*
X164409136Y-96133697D02*
X164525250Y-96133697D01*
X164525250Y-96133697D02*
X164571696Y-96156920D01*
X164571696Y-96156920D02*
X164594918Y-96180143D01*
X164594918Y-96180143D02*
X164618141Y-96226589D01*
X164618141Y-96226589D02*
X164618141Y-96273035D01*
X164618141Y-96273035D02*
X164594918Y-96342703D01*
X164594918Y-96342703D02*
X164316244Y-96621377D01*
X164316244Y-96621377D02*
X164618141Y-96621377D01*
X137089400Y-103817097D02*
X137089400Y-104165440D01*
X137089400Y-104165440D02*
X137066177Y-104235109D01*
X137066177Y-104235109D02*
X137019731Y-104281555D01*
X137019731Y-104281555D02*
X136950063Y-104304777D01*
X136950063Y-104304777D02*
X136903617Y-104304777D01*
X137321629Y-104304777D02*
X137321629Y-103817097D01*
X137321629Y-103817097D02*
X137507412Y-103817097D01*
X137507412Y-103817097D02*
X137553857Y-103840320D01*
X137553857Y-103840320D02*
X137577080Y-103863543D01*
X137577080Y-103863543D02*
X137600303Y-103909989D01*
X137600303Y-103909989D02*
X137600303Y-103979657D01*
X137600303Y-103979657D02*
X137577080Y-104026103D01*
X137577080Y-104026103D02*
X137553857Y-104049326D01*
X137553857Y-104049326D02*
X137507412Y-104072549D01*
X137507412Y-104072549D02*
X137321629Y-104072549D01*
X137786086Y-103863543D02*
X137809309Y-103840320D01*
X137809309Y-103840320D02*
X137855755Y-103817097D01*
X137855755Y-103817097D02*
X137971869Y-103817097D01*
X137971869Y-103817097D02*
X138018315Y-103840320D01*
X138018315Y-103840320D02*
X138041537Y-103863543D01*
X138041537Y-103863543D02*
X138064760Y-103909989D01*
X138064760Y-103909989D02*
X138064760Y-103956435D01*
X138064760Y-103956435D02*
X138041537Y-104026103D01*
X138041537Y-104026103D02*
X137762863Y-104304777D01*
X137762863Y-104304777D02*
X138064760Y-104304777D01*
X141569120Y-101212732D02*
X141545897Y-101235955D01*
X141545897Y-101235955D02*
X141476229Y-101259177D01*
X141476229Y-101259177D02*
X141429783Y-101259177D01*
X141429783Y-101259177D02*
X141360114Y-101235955D01*
X141360114Y-101235955D02*
X141313669Y-101189509D01*
X141313669Y-101189509D02*
X141290446Y-101143063D01*
X141290446Y-101143063D02*
X141267223Y-101050172D01*
X141267223Y-101050172D02*
X141267223Y-100980503D01*
X141267223Y-100980503D02*
X141290446Y-100887612D01*
X141290446Y-100887612D02*
X141313669Y-100841166D01*
X141313669Y-100841166D02*
X141360114Y-100794720D01*
X141360114Y-100794720D02*
X141429783Y-100771497D01*
X141429783Y-100771497D02*
X141476229Y-100771497D01*
X141476229Y-100771497D02*
X141545897Y-100794720D01*
X141545897Y-100794720D02*
X141569120Y-100817943D01*
X141731680Y-100771497D02*
X142033577Y-100771497D01*
X142033577Y-100771497D02*
X141871017Y-100957280D01*
X141871017Y-100957280D02*
X141940686Y-100957280D01*
X141940686Y-100957280D02*
X141987132Y-100980503D01*
X141987132Y-100980503D02*
X142010354Y-101003726D01*
X142010354Y-101003726D02*
X142033577Y-101050172D01*
X142033577Y-101050172D02*
X142033577Y-101166286D01*
X142033577Y-101166286D02*
X142010354Y-101212732D01*
X142010354Y-101212732D02*
X141987132Y-101235955D01*
X141987132Y-101235955D02*
X141940686Y-101259177D01*
X141940686Y-101259177D02*
X141801349Y-101259177D01*
X141801349Y-101259177D02*
X141754903Y-101235955D01*
X141754903Y-101235955D02*
X141731680Y-101212732D01*
X137192046Y-107507827D02*
X137192046Y-107020147D01*
X137192046Y-107020147D02*
X137308160Y-107020147D01*
X137308160Y-107020147D02*
X137377829Y-107043370D01*
X137377829Y-107043370D02*
X137424274Y-107089816D01*
X137424274Y-107089816D02*
X137447497Y-107136262D01*
X137447497Y-107136262D02*
X137470720Y-107229153D01*
X137470720Y-107229153D02*
X137470720Y-107298822D01*
X137470720Y-107298822D02*
X137447497Y-107391713D01*
X137447497Y-107391713D02*
X137424274Y-107438159D01*
X137424274Y-107438159D02*
X137377829Y-107484605D01*
X137377829Y-107484605D02*
X137308160Y-107507827D01*
X137308160Y-107507827D02*
X137192046Y-107507827D01*
X137935177Y-107507827D02*
X137656503Y-107507827D01*
X137795840Y-107507827D02*
X137795840Y-107020147D01*
X137795840Y-107020147D02*
X137749394Y-107089816D01*
X137749394Y-107089816D02*
X137702949Y-107136262D01*
X137702949Y-107136262D02*
X137656503Y-107159485D01*
D12*
X156559909Y-105835665D02*
X156559909Y-106138336D01*
X156559909Y-106138336D02*
X156577714Y-106173944D01*
X156577714Y-106173944D02*
X156595518Y-106191749D01*
X156595518Y-106191749D02*
X156631126Y-106209553D01*
X156631126Y-106209553D02*
X156702343Y-106209553D01*
X156702343Y-106209553D02*
X156737951Y-106191749D01*
X156737951Y-106191749D02*
X156755756Y-106173944D01*
X156755756Y-106173944D02*
X156773560Y-106138336D01*
X156773560Y-106138336D02*
X156773560Y-105835665D01*
X157005014Y-105995902D02*
X156969406Y-105978098D01*
X156969406Y-105978098D02*
X156951601Y-105960294D01*
X156951601Y-105960294D02*
X156933797Y-105924686D01*
X156933797Y-105924686D02*
X156933797Y-105906881D01*
X156933797Y-105906881D02*
X156951601Y-105871273D01*
X156951601Y-105871273D02*
X156969406Y-105853469D01*
X156969406Y-105853469D02*
X157005014Y-105835665D01*
X157005014Y-105835665D02*
X157076231Y-105835665D01*
X157076231Y-105835665D02*
X157111839Y-105853469D01*
X157111839Y-105853469D02*
X157129643Y-105871273D01*
X157129643Y-105871273D02*
X157147448Y-105906881D01*
X157147448Y-105906881D02*
X157147448Y-105924686D01*
X157147448Y-105924686D02*
X157129643Y-105960294D01*
X157129643Y-105960294D02*
X157111839Y-105978098D01*
X157111839Y-105978098D02*
X157076231Y-105995902D01*
X157076231Y-105995902D02*
X157005014Y-105995902D01*
X157005014Y-105995902D02*
X156969406Y-106013707D01*
X156969406Y-106013707D02*
X156951601Y-106031511D01*
X156951601Y-106031511D02*
X156933797Y-106067119D01*
X156933797Y-106067119D02*
X156933797Y-106138336D01*
X156933797Y-106138336D02*
X156951601Y-106173944D01*
X156951601Y-106173944D02*
X156969406Y-106191749D01*
X156969406Y-106191749D02*
X157005014Y-106209553D01*
X157005014Y-106209553D02*
X157076231Y-106209553D01*
X157076231Y-106209553D02*
X157111839Y-106191749D01*
X157111839Y-106191749D02*
X157129643Y-106173944D01*
X157129643Y-106173944D02*
X157147448Y-106138336D01*
X157147448Y-106138336D02*
X157147448Y-106067119D01*
X157147448Y-106067119D02*
X157129643Y-106031511D01*
X157129643Y-106031511D02*
X157111839Y-106013707D01*
X157111839Y-106013707D02*
X157076231Y-105995902D01*
D10*
X137719120Y-86361577D02*
X137556560Y-86129349D01*
X137440446Y-86361577D02*
X137440446Y-85873897D01*
X137440446Y-85873897D02*
X137626229Y-85873897D01*
X137626229Y-85873897D02*
X137672674Y-85897120D01*
X137672674Y-85897120D02*
X137695897Y-85920343D01*
X137695897Y-85920343D02*
X137719120Y-85966789D01*
X137719120Y-85966789D02*
X137719120Y-86036457D01*
X137719120Y-86036457D02*
X137695897Y-86082903D01*
X137695897Y-86082903D02*
X137672674Y-86106126D01*
X137672674Y-86106126D02*
X137626229Y-86129349D01*
X137626229Y-86129349D02*
X137440446Y-86129349D01*
X138183577Y-86361577D02*
X137904903Y-86361577D01*
X138044240Y-86361577D02*
X138044240Y-85873897D01*
X138044240Y-85873897D02*
X137997794Y-85943566D01*
X137997794Y-85943566D02*
X137951349Y-85990012D01*
X137951349Y-85990012D02*
X137904903Y-86013235D01*
X141569120Y-103563532D02*
X141545897Y-103586755D01*
X141545897Y-103586755D02*
X141476229Y-103609977D01*
X141476229Y-103609977D02*
X141429783Y-103609977D01*
X141429783Y-103609977D02*
X141360114Y-103586755D01*
X141360114Y-103586755D02*
X141313669Y-103540309D01*
X141313669Y-103540309D02*
X141290446Y-103493863D01*
X141290446Y-103493863D02*
X141267223Y-103400972D01*
X141267223Y-103400972D02*
X141267223Y-103331303D01*
X141267223Y-103331303D02*
X141290446Y-103238412D01*
X141290446Y-103238412D02*
X141313669Y-103191966D01*
X141313669Y-103191966D02*
X141360114Y-103145520D01*
X141360114Y-103145520D02*
X141429783Y-103122297D01*
X141429783Y-103122297D02*
X141476229Y-103122297D01*
X141476229Y-103122297D02*
X141545897Y-103145520D01*
X141545897Y-103145520D02*
X141569120Y-103168743D01*
X141731680Y-103122297D02*
X142056800Y-103122297D01*
X142056800Y-103122297D02*
X141847794Y-103609977D01*
X146385661Y-99649297D02*
X146385661Y-99997640D01*
X146385661Y-99997640D02*
X146362438Y-100067309D01*
X146362438Y-100067309D02*
X146315992Y-100113755D01*
X146315992Y-100113755D02*
X146246324Y-100136977D01*
X146246324Y-100136977D02*
X146199878Y-100136977D01*
X146873341Y-100136977D02*
X146594667Y-100136977D01*
X146734004Y-100136977D02*
X146734004Y-99649297D01*
X146734004Y-99649297D02*
X146687558Y-99718966D01*
X146687558Y-99718966D02*
X146641113Y-99765412D01*
X146641113Y-99765412D02*
X146594667Y-99788635D01*
X147035901Y-99649297D02*
X147361021Y-99649297D01*
X147361021Y-99649297D02*
X147152015Y-100136977D01*
X137089400Y-100581897D02*
X137089400Y-100930240D01*
X137089400Y-100930240D02*
X137066177Y-100999909D01*
X137066177Y-100999909D02*
X137019731Y-101046355D01*
X137019731Y-101046355D02*
X136950063Y-101069577D01*
X136950063Y-101069577D02*
X136903617Y-101069577D01*
X137321629Y-101069577D02*
X137321629Y-100581897D01*
X137321629Y-100581897D02*
X137507412Y-100581897D01*
X137507412Y-100581897D02*
X137553857Y-100605120D01*
X137553857Y-100605120D02*
X137577080Y-100628343D01*
X137577080Y-100628343D02*
X137600303Y-100674789D01*
X137600303Y-100674789D02*
X137600303Y-100744457D01*
X137600303Y-100744457D02*
X137577080Y-100790903D01*
X137577080Y-100790903D02*
X137553857Y-100814126D01*
X137553857Y-100814126D02*
X137507412Y-100837349D01*
X137507412Y-100837349D02*
X137321629Y-100837349D01*
X138064760Y-101069577D02*
X137786086Y-101069577D01*
X137925423Y-101069577D02*
X137925423Y-100581897D01*
X137925423Y-100581897D02*
X137878977Y-100651566D01*
X137878977Y-100651566D02*
X137832532Y-100698012D01*
X137832532Y-100698012D02*
X137786086Y-100721235D01*
D14*
X160143678Y-102926249D02*
X160143678Y-103671011D01*
X160143678Y-103671011D02*
X160187488Y-103758630D01*
X160187488Y-103758630D02*
X160231297Y-103802440D01*
X160231297Y-103802440D02*
X160318916Y-103846249D01*
X160318916Y-103846249D02*
X160494154Y-103846249D01*
X160494154Y-103846249D02*
X160581773Y-103802440D01*
X160581773Y-103802440D02*
X160625583Y-103758630D01*
X160625583Y-103758630D02*
X160669392Y-103671011D01*
X160669392Y-103671011D02*
X160669392Y-102926249D01*
X161589393Y-103846249D02*
X161063679Y-103846249D01*
X161326536Y-103846249D02*
X161326536Y-102926249D01*
X161326536Y-102926249D02*
X161238917Y-103057678D01*
X161238917Y-103057678D02*
X161151298Y-103145297D01*
X161151298Y-103145297D02*
X161063679Y-103189106D01*
X162158916Y-102926249D02*
X162246535Y-102926249D01*
X162246535Y-102926249D02*
X162334154Y-102970059D01*
X162334154Y-102970059D02*
X162377964Y-103013868D01*
X162377964Y-103013868D02*
X162421773Y-103101487D01*
X162421773Y-103101487D02*
X162465583Y-103276725D01*
X162465583Y-103276725D02*
X162465583Y-103495773D01*
X162465583Y-103495773D02*
X162421773Y-103671011D01*
X162421773Y-103671011D02*
X162377964Y-103758630D01*
X162377964Y-103758630D02*
X162334154Y-103802440D01*
X162334154Y-103802440D02*
X162246535Y-103846249D01*
X162246535Y-103846249D02*
X162158916Y-103846249D01*
X162158916Y-103846249D02*
X162071297Y-103802440D01*
X162071297Y-103802440D02*
X162027488Y-103758630D01*
X162027488Y-103758630D02*
X161983678Y-103671011D01*
X161983678Y-103671011D02*
X161939869Y-103495773D01*
X161939869Y-103495773D02*
X161939869Y-103276725D01*
X161939869Y-103276725D02*
X161983678Y-103101487D01*
X161983678Y-103101487D02*
X162027488Y-103013868D01*
X162027488Y-103013868D02*
X162071297Y-102970059D01*
X162071297Y-102970059D02*
X162158916Y-102926249D01*
D10*
X137719120Y-81413532D02*
X137695897Y-81436755D01*
X137695897Y-81436755D02*
X137626229Y-81459977D01*
X137626229Y-81459977D02*
X137579783Y-81459977D01*
X137579783Y-81459977D02*
X137510114Y-81436755D01*
X137510114Y-81436755D02*
X137463669Y-81390309D01*
X137463669Y-81390309D02*
X137440446Y-81343863D01*
X137440446Y-81343863D02*
X137417223Y-81250972D01*
X137417223Y-81250972D02*
X137417223Y-81181303D01*
X137417223Y-81181303D02*
X137440446Y-81088412D01*
X137440446Y-81088412D02*
X137463669Y-81041966D01*
X137463669Y-81041966D02*
X137510114Y-80995520D01*
X137510114Y-80995520D02*
X137579783Y-80972297D01*
X137579783Y-80972297D02*
X137626229Y-80972297D01*
X137626229Y-80972297D02*
X137695897Y-80995520D01*
X137695897Y-80995520D02*
X137719120Y-81018743D01*
X138160354Y-80972297D02*
X137928126Y-80972297D01*
X137928126Y-80972297D02*
X137904903Y-81204526D01*
X137904903Y-81204526D02*
X137928126Y-81181303D01*
X137928126Y-81181303D02*
X137974572Y-81158080D01*
X137974572Y-81158080D02*
X138090686Y-81158080D01*
X138090686Y-81158080D02*
X138137132Y-81181303D01*
X138137132Y-81181303D02*
X138160354Y-81204526D01*
X138160354Y-81204526D02*
X138183577Y-81250972D01*
X138183577Y-81250972D02*
X138183577Y-81367086D01*
X138183577Y-81367086D02*
X138160354Y-81413532D01*
X138160354Y-81413532D02*
X138137132Y-81436755D01*
X138137132Y-81436755D02*
X138090686Y-81459977D01*
X138090686Y-81459977D02*
X137974572Y-81459977D01*
X137974572Y-81459977D02*
X137928126Y-81436755D01*
X137928126Y-81436755D02*
X137904903Y-81413532D01*
X160903661Y-85317897D02*
X160903661Y-85666240D01*
X160903661Y-85666240D02*
X160880438Y-85735909D01*
X160880438Y-85735909D02*
X160833992Y-85782355D01*
X160833992Y-85782355D02*
X160764324Y-85805577D01*
X160764324Y-85805577D02*
X160717878Y-85805577D01*
X161391341Y-85805577D02*
X161112667Y-85805577D01*
X161252004Y-85805577D02*
X161252004Y-85317897D01*
X161252004Y-85317897D02*
X161205558Y-85387566D01*
X161205558Y-85387566D02*
X161159113Y-85434012D01*
X161159113Y-85434012D02*
X161112667Y-85457235D01*
X161809353Y-85317897D02*
X161716461Y-85317897D01*
X161716461Y-85317897D02*
X161670015Y-85341120D01*
X161670015Y-85341120D02*
X161646793Y-85364343D01*
X161646793Y-85364343D02*
X161600347Y-85434012D01*
X161600347Y-85434012D02*
X161577124Y-85526903D01*
X161577124Y-85526903D02*
X161577124Y-85712686D01*
X161577124Y-85712686D02*
X161600347Y-85759132D01*
X161600347Y-85759132D02*
X161623570Y-85782355D01*
X161623570Y-85782355D02*
X161670015Y-85805577D01*
X161670015Y-85805577D02*
X161762907Y-85805577D01*
X161762907Y-85805577D02*
X161809353Y-85782355D01*
X161809353Y-85782355D02*
X161832575Y-85759132D01*
X161832575Y-85759132D02*
X161855798Y-85712686D01*
X161855798Y-85712686D02*
X161855798Y-85596572D01*
X161855798Y-85596572D02*
X161832575Y-85550126D01*
X161832575Y-85550126D02*
X161809353Y-85526903D01*
X161809353Y-85526903D02*
X161762907Y-85503680D01*
X161762907Y-85503680D02*
X161670015Y-85503680D01*
X161670015Y-85503680D02*
X161623570Y-85526903D01*
X161623570Y-85526903D02*
X161600347Y-85550126D01*
X161600347Y-85550126D02*
X161577124Y-85596572D01*
D11*
X117012819Y-77009523D02*
X117727104Y-77009523D01*
X117727104Y-77009523D02*
X117869961Y-77057142D01*
X117869961Y-77057142D02*
X117965200Y-77152380D01*
X117965200Y-77152380D02*
X118012819Y-77295237D01*
X118012819Y-77295237D02*
X118012819Y-77390475D01*
X118012819Y-76009523D02*
X118012819Y-76580951D01*
X118012819Y-76295237D02*
X117012819Y-76295237D01*
X117012819Y-76295237D02*
X117155676Y-76390475D01*
X117155676Y-76390475D02*
X117250914Y-76485713D01*
X117250914Y-76485713D02*
X117298533Y-76580951D01*
X117108057Y-75628570D02*
X117060438Y-75580951D01*
X117060438Y-75580951D02*
X117012819Y-75485713D01*
X117012819Y-75485713D02*
X117012819Y-75247618D01*
X117012819Y-75247618D02*
X117060438Y-75152380D01*
X117060438Y-75152380D02*
X117108057Y-75104761D01*
X117108057Y-75104761D02*
X117203295Y-75057142D01*
X117203295Y-75057142D02*
X117298533Y-75057142D01*
X117298533Y-75057142D02*
X117441390Y-75104761D01*
X117441390Y-75104761D02*
X118012819Y-75676189D01*
X118012819Y-75676189D02*
X118012819Y-75057142D01*
D10*
X137719120Y-96164777D02*
X137556560Y-95932549D01*
X137440446Y-96164777D02*
X137440446Y-95677097D01*
X137440446Y-95677097D02*
X137626229Y-95677097D01*
X137626229Y-95677097D02*
X137672674Y-95700320D01*
X137672674Y-95700320D02*
X137695897Y-95723543D01*
X137695897Y-95723543D02*
X137719120Y-95769989D01*
X137719120Y-95769989D02*
X137719120Y-95839657D01*
X137719120Y-95839657D02*
X137695897Y-95886103D01*
X137695897Y-95886103D02*
X137672674Y-95909326D01*
X137672674Y-95909326D02*
X137626229Y-95932549D01*
X137626229Y-95932549D02*
X137440446Y-95932549D01*
X138160354Y-95677097D02*
X137928126Y-95677097D01*
X137928126Y-95677097D02*
X137904903Y-95909326D01*
X137904903Y-95909326D02*
X137928126Y-95886103D01*
X137928126Y-95886103D02*
X137974572Y-95862880D01*
X137974572Y-95862880D02*
X138090686Y-95862880D01*
X138090686Y-95862880D02*
X138137132Y-95886103D01*
X138137132Y-95886103D02*
X138160354Y-95909326D01*
X138160354Y-95909326D02*
X138183577Y-95955772D01*
X138183577Y-95955772D02*
X138183577Y-96071886D01*
X138183577Y-96071886D02*
X138160354Y-96118332D01*
X138160354Y-96118332D02*
X138137132Y-96141555D01*
X138137132Y-96141555D02*
X138090686Y-96164777D01*
X138090686Y-96164777D02*
X137974572Y-96164777D01*
X137974572Y-96164777D02*
X137928126Y-96141555D01*
X137928126Y-96141555D02*
X137904903Y-96118332D01*
X160009120Y-89234932D02*
X159985897Y-89258155D01*
X159985897Y-89258155D02*
X159916229Y-89281377D01*
X159916229Y-89281377D02*
X159869783Y-89281377D01*
X159869783Y-89281377D02*
X159800114Y-89258155D01*
X159800114Y-89258155D02*
X159753669Y-89211709D01*
X159753669Y-89211709D02*
X159730446Y-89165263D01*
X159730446Y-89165263D02*
X159707223Y-89072372D01*
X159707223Y-89072372D02*
X159707223Y-89002703D01*
X159707223Y-89002703D02*
X159730446Y-88909812D01*
X159730446Y-88909812D02*
X159753669Y-88863366D01*
X159753669Y-88863366D02*
X159800114Y-88816920D01*
X159800114Y-88816920D02*
X159869783Y-88793697D01*
X159869783Y-88793697D02*
X159916229Y-88793697D01*
X159916229Y-88793697D02*
X159985897Y-88816920D01*
X159985897Y-88816920D02*
X160009120Y-88840143D01*
X160427132Y-88793697D02*
X160334240Y-88793697D01*
X160334240Y-88793697D02*
X160287794Y-88816920D01*
X160287794Y-88816920D02*
X160264572Y-88840143D01*
X160264572Y-88840143D02*
X160218126Y-88909812D01*
X160218126Y-88909812D02*
X160194903Y-89002703D01*
X160194903Y-89002703D02*
X160194903Y-89188486D01*
X160194903Y-89188486D02*
X160218126Y-89234932D01*
X160218126Y-89234932D02*
X160241349Y-89258155D01*
X160241349Y-89258155D02*
X160287794Y-89281377D01*
X160287794Y-89281377D02*
X160380686Y-89281377D01*
X160380686Y-89281377D02*
X160427132Y-89258155D01*
X160427132Y-89258155D02*
X160450354Y-89234932D01*
X160450354Y-89234932D02*
X160473577Y-89188486D01*
X160473577Y-89188486D02*
X160473577Y-89072372D01*
X160473577Y-89072372D02*
X160450354Y-89025926D01*
X160450354Y-89025926D02*
X160427132Y-89002703D01*
X160427132Y-89002703D02*
X160380686Y-88979480D01*
X160380686Y-88979480D02*
X160287794Y-88979480D01*
X160287794Y-88979480D02*
X160241349Y-89002703D01*
X160241349Y-89002703D02*
X160218126Y-89025926D01*
X160218126Y-89025926D02*
X160194903Y-89072372D01*
X137719120Y-93713977D02*
X137556560Y-93481749D01*
X137440446Y-93713977D02*
X137440446Y-93226297D01*
X137440446Y-93226297D02*
X137626229Y-93226297D01*
X137626229Y-93226297D02*
X137672674Y-93249520D01*
X137672674Y-93249520D02*
X137695897Y-93272743D01*
X137695897Y-93272743D02*
X137719120Y-93319189D01*
X137719120Y-93319189D02*
X137719120Y-93388857D01*
X137719120Y-93388857D02*
X137695897Y-93435303D01*
X137695897Y-93435303D02*
X137672674Y-93458526D01*
X137672674Y-93458526D02*
X137626229Y-93481749D01*
X137626229Y-93481749D02*
X137440446Y-93481749D01*
X138137132Y-93388857D02*
X138137132Y-93713977D01*
X138021017Y-93203075D02*
X137904903Y-93551417D01*
X137904903Y-93551417D02*
X138206800Y-93551417D01*
D11*
X148621905Y-86140819D02*
X148621905Y-86950342D01*
X148621905Y-86950342D02*
X148669524Y-87045580D01*
X148669524Y-87045580D02*
X148717143Y-87093200D01*
X148717143Y-87093200D02*
X148812381Y-87140819D01*
X148812381Y-87140819D02*
X149002857Y-87140819D01*
X149002857Y-87140819D02*
X149098095Y-87093200D01*
X149098095Y-87093200D02*
X149145714Y-87045580D01*
X149145714Y-87045580D02*
X149193333Y-86950342D01*
X149193333Y-86950342D02*
X149193333Y-86140819D01*
X150193333Y-87140819D02*
X149621905Y-87140819D01*
X149907619Y-87140819D02*
X149907619Y-86140819D01*
X149907619Y-86140819D02*
X149812381Y-86283676D01*
X149812381Y-86283676D02*
X149717143Y-86378914D01*
X149717143Y-86378914D02*
X149621905Y-86426533D01*
X150574286Y-86236057D02*
X150621905Y-86188438D01*
X150621905Y-86188438D02*
X150717143Y-86140819D01*
X150717143Y-86140819D02*
X150955238Y-86140819D01*
X150955238Y-86140819D02*
X151050476Y-86188438D01*
X151050476Y-86188438D02*
X151098095Y-86236057D01*
X151098095Y-86236057D02*
X151145714Y-86331295D01*
X151145714Y-86331295D02*
X151145714Y-86426533D01*
X151145714Y-86426533D02*
X151098095Y-86569390D01*
X151098095Y-86569390D02*
X150526667Y-87140819D01*
X150526667Y-87140819D02*
X151145714Y-87140819D01*
D10*
X164130461Y-93254097D02*
X164130461Y-93602440D01*
X164130461Y-93602440D02*
X164107238Y-93672109D01*
X164107238Y-93672109D02*
X164060792Y-93718555D01*
X164060792Y-93718555D02*
X163991124Y-93741777D01*
X163991124Y-93741777D02*
X163944678Y-93741777D01*
X164618141Y-93741777D02*
X164339467Y-93741777D01*
X164478804Y-93741777D02*
X164478804Y-93254097D01*
X164478804Y-93254097D02*
X164432358Y-93323766D01*
X164432358Y-93323766D02*
X164385913Y-93370212D01*
X164385913Y-93370212D02*
X164339467Y-93393435D01*
D11*
X171148476Y-85770819D02*
X171148476Y-86485104D01*
X171148476Y-86485104D02*
X171100857Y-86627961D01*
X171100857Y-86627961D02*
X171005619Y-86723200D01*
X171005619Y-86723200D02*
X170862762Y-86770819D01*
X170862762Y-86770819D02*
X170767524Y-86770819D01*
X172148476Y-86770819D02*
X171577048Y-86770819D01*
X171862762Y-86770819D02*
X171862762Y-85770819D01*
X171862762Y-85770819D02*
X171767524Y-85913676D01*
X171767524Y-85913676D02*
X171672286Y-86008914D01*
X171672286Y-86008914D02*
X171577048Y-86056533D01*
X173053238Y-85770819D02*
X172577048Y-85770819D01*
X172577048Y-85770819D02*
X172529429Y-86247009D01*
X172529429Y-86247009D02*
X172577048Y-86199390D01*
X172577048Y-86199390D02*
X172672286Y-86151771D01*
X172672286Y-86151771D02*
X172910381Y-86151771D01*
X172910381Y-86151771D02*
X173005619Y-86199390D01*
X173005619Y-86199390D02*
X173053238Y-86247009D01*
X173053238Y-86247009D02*
X173100857Y-86342247D01*
X173100857Y-86342247D02*
X173100857Y-86580342D01*
X173100857Y-86580342D02*
X173053238Y-86675580D01*
X173053238Y-86675580D02*
X173005619Y-86723200D01*
X173005619Y-86723200D02*
X172910381Y-86770819D01*
X172910381Y-86770819D02*
X172672286Y-86770819D01*
X172672286Y-86770819D02*
X172577048Y-86723200D01*
X172577048Y-86723200D02*
X172529429Y-86675580D01*
D10*
X141336891Y-108265132D02*
X141313668Y-108288355D01*
X141313668Y-108288355D02*
X141244000Y-108311577D01*
X141244000Y-108311577D02*
X141197554Y-108311577D01*
X141197554Y-108311577D02*
X141127885Y-108288355D01*
X141127885Y-108288355D02*
X141081440Y-108241909D01*
X141081440Y-108241909D02*
X141058217Y-108195463D01*
X141058217Y-108195463D02*
X141034994Y-108102572D01*
X141034994Y-108102572D02*
X141034994Y-108032903D01*
X141034994Y-108032903D02*
X141058217Y-107940012D01*
X141058217Y-107940012D02*
X141081440Y-107893566D01*
X141081440Y-107893566D02*
X141127885Y-107847120D01*
X141127885Y-107847120D02*
X141197554Y-107823897D01*
X141197554Y-107823897D02*
X141244000Y-107823897D01*
X141244000Y-107823897D02*
X141313668Y-107847120D01*
X141313668Y-107847120D02*
X141336891Y-107870343D01*
X141801348Y-108311577D02*
X141522674Y-108311577D01*
X141662011Y-108311577D02*
X141662011Y-107823897D01*
X141662011Y-107823897D02*
X141615565Y-107893566D01*
X141615565Y-107893566D02*
X141569120Y-107940012D01*
X141569120Y-107940012D02*
X141522674Y-107963235D01*
X142103245Y-107823897D02*
X142149691Y-107823897D01*
X142149691Y-107823897D02*
X142196137Y-107847120D01*
X142196137Y-107847120D02*
X142219360Y-107870343D01*
X142219360Y-107870343D02*
X142242582Y-107916789D01*
X142242582Y-107916789D02*
X142265805Y-108009680D01*
X142265805Y-108009680D02*
X142265805Y-108125795D01*
X142265805Y-108125795D02*
X142242582Y-108218686D01*
X142242582Y-108218686D02*
X142219360Y-108265132D01*
X142219360Y-108265132D02*
X142196137Y-108288355D01*
X142196137Y-108288355D02*
X142149691Y-108311577D01*
X142149691Y-108311577D02*
X142103245Y-108311577D01*
X142103245Y-108311577D02*
X142056800Y-108288355D01*
X142056800Y-108288355D02*
X142033577Y-108265132D01*
X142033577Y-108265132D02*
X142010354Y-108218686D01*
X142010354Y-108218686D02*
X141987131Y-108125795D01*
X141987131Y-108125795D02*
X141987131Y-108009680D01*
X141987131Y-108009680D02*
X142010354Y-107916789D01*
X142010354Y-107916789D02*
X142033577Y-107870343D01*
X142033577Y-107870343D02*
X142056800Y-107847120D01*
X142056800Y-107847120D02*
X142103245Y-107823897D01*
X137719120Y-88812377D02*
X137556560Y-88580149D01*
X137440446Y-88812377D02*
X137440446Y-88324697D01*
X137440446Y-88324697D02*
X137626229Y-88324697D01*
X137626229Y-88324697D02*
X137672674Y-88347920D01*
X137672674Y-88347920D02*
X137695897Y-88371143D01*
X137695897Y-88371143D02*
X137719120Y-88417589D01*
X137719120Y-88417589D02*
X137719120Y-88487257D01*
X137719120Y-88487257D02*
X137695897Y-88533703D01*
X137695897Y-88533703D02*
X137672674Y-88556926D01*
X137672674Y-88556926D02*
X137626229Y-88580149D01*
X137626229Y-88580149D02*
X137440446Y-88580149D01*
X137904903Y-88371143D02*
X137928126Y-88347920D01*
X137928126Y-88347920D02*
X137974572Y-88324697D01*
X137974572Y-88324697D02*
X138090686Y-88324697D01*
X138090686Y-88324697D02*
X138137132Y-88347920D01*
X138137132Y-88347920D02*
X138160354Y-88371143D01*
X138160354Y-88371143D02*
X138183577Y-88417589D01*
X138183577Y-88417589D02*
X138183577Y-88464035D01*
X138183577Y-88464035D02*
X138160354Y-88533703D01*
X138160354Y-88533703D02*
X137881680Y-88812377D01*
X137881680Y-88812377D02*
X138183577Y-88812377D01*
D11*
X122854819Y-69389523D02*
X123569104Y-69389523D01*
X123569104Y-69389523D02*
X123711961Y-69437142D01*
X123711961Y-69437142D02*
X123807200Y-69532380D01*
X123807200Y-69532380D02*
X123854819Y-69675237D01*
X123854819Y-69675237D02*
X123854819Y-69770475D01*
X123854819Y-68389523D02*
X123854819Y-68960951D01*
X123854819Y-68675237D02*
X122854819Y-68675237D01*
X122854819Y-68675237D02*
X122997676Y-68770475D01*
X122997676Y-68770475D02*
X123092914Y-68865713D01*
X123092914Y-68865713D02*
X123140533Y-68960951D01*
X122854819Y-68056189D02*
X122854819Y-67437142D01*
X122854819Y-67437142D02*
X123235771Y-67770475D01*
X123235771Y-67770475D02*
X123235771Y-67627618D01*
X123235771Y-67627618D02*
X123283390Y-67532380D01*
X123283390Y-67532380D02*
X123331009Y-67484761D01*
X123331009Y-67484761D02*
X123426247Y-67437142D01*
X123426247Y-67437142D02*
X123664342Y-67437142D01*
X123664342Y-67437142D02*
X123759580Y-67484761D01*
X123759580Y-67484761D02*
X123807200Y-67532380D01*
X123807200Y-67532380D02*
X123854819Y-67627618D01*
X123854819Y-67627618D02*
X123854819Y-67913332D01*
X123854819Y-67913332D02*
X123807200Y-68008570D01*
X123807200Y-68008570D02*
X123759580Y-68056189D01*
D15*
%TO.C,U11*%
X154000000Y-106871000D02*
X151000000Y-106871000D01*
X154000000Y-109871000D02*
X151000000Y-109871000D01*
X150650000Y-106971000D02*
X150410000Y-106641000D01*
X150890000Y-106641000D01*
X150650000Y-106971000D01*
G36*
X150650000Y-106971000D02*
G01*
X150410000Y-106641000D01*
X150890000Y-106641000D01*
X150650000Y-106971000D01*
G37*
D16*
%TO.C,J6*%
X158965000Y-77686000D02*
X159715000Y-77686000D01*
X158965000Y-79336000D02*
X158965000Y-77686000D01*
X160465000Y-81936000D02*
X163465000Y-81936000D01*
X164215000Y-77686000D02*
X164965000Y-77686000D01*
X164965000Y-77686000D02*
X164965000Y-79336000D01*
X159566600Y-77036000D02*
G75*
G02*
X159363400Y-77036000I-101600J0D01*
G01*
X159363400Y-77036000D02*
G75*
G02*
X159566600Y-77036000I101600J0D01*
G01*
D15*
%TO.C,J10*%
X133290000Y-118170000D02*
X133290000Y-116840000D01*
X134620000Y-118170000D02*
X133290000Y-118170000D01*
X135890000Y-115510000D02*
X153730000Y-115510000D01*
X135890000Y-118170000D02*
X135890000Y-115510000D01*
X135890000Y-118170000D02*
X153730000Y-118170000D01*
X153730000Y-118170000D02*
X153730000Y-115510000D01*
D17*
%TO.C,U2*%
X117900000Y-108026000D02*
X117900000Y-110486000D01*
X118160000Y-107776000D02*
X120620000Y-107776000D01*
X120620000Y-110746000D02*
X118160000Y-110746000D01*
X120860000Y-110496000D02*
X120860000Y-108026000D01*
X117900000Y-108026000D02*
G75*
G02*
X118150000Y-107776000I249999J1D01*
G01*
X118150000Y-110746000D02*
G75*
G02*
X117900000Y-110496000I-1J249999D01*
G01*
X120610000Y-107776000D02*
G75*
G02*
X120860000Y-108026000I0J-250000D01*
G01*
X120860000Y-110496000D02*
G75*
G02*
X120610000Y-110746000I-250000J0D01*
G01*
D18*
X117845978Y-111313400D02*
G75*
G02*
X117662822Y-111313400I-91578J0D01*
G01*
X117662822Y-111313400D02*
G75*
G02*
X117845978Y-111313400I91578J0D01*
G01*
D15*
%TO.C,J14*%
X151070000Y-69910000D02*
X151070000Y-68580000D01*
X152400000Y-69910000D02*
X151070000Y-69910000D01*
X153670000Y-67250000D02*
X171510000Y-67250000D01*
X153670000Y-69910000D02*
X153670000Y-67250000D01*
X153670000Y-69910000D02*
X171510000Y-69910000D01*
X171510000Y-69910000D02*
X171510000Y-67250000D01*
%TO.C,J9*%
X124146000Y-118170000D02*
X124146000Y-116840000D01*
X125476000Y-118170000D02*
X124146000Y-118170000D01*
X126746000Y-115510000D02*
X131886000Y-115510000D01*
X126746000Y-118170000D02*
X126746000Y-115510000D01*
X126746000Y-118170000D02*
X131886000Y-118170000D01*
X131886000Y-118170000D02*
X131886000Y-115510000D01*
%TO.C,J11*%
X156404000Y-118424000D02*
X156404000Y-117094000D01*
X157734000Y-118424000D02*
X156404000Y-118424000D01*
X159004000Y-115764000D02*
X171764000Y-115764000D01*
X159004000Y-118424000D02*
X159004000Y-115764000D01*
X159004000Y-118424000D02*
X171764000Y-118424000D01*
X171764000Y-118424000D02*
X171764000Y-115764000D01*
D16*
%TO.C,JP2*%
X136276600Y-106072600D02*
X136276600Y-104955000D01*
X136733800Y-104497800D02*
X138257800Y-104497800D01*
X138257800Y-106529800D02*
X136733800Y-106529800D01*
X138715000Y-106072600D02*
X138715000Y-104955000D01*
X136276600Y-104955000D02*
G75*
G02*
X136733800Y-104497800I457201J-1D01*
G01*
X136733800Y-106529800D02*
G75*
G02*
X136276600Y-106072600I1J457201D01*
G01*
X138257800Y-104497800D02*
G75*
G02*
X138715000Y-104955000I0J-457200D01*
G01*
X138715000Y-106072600D02*
G75*
G02*
X138257800Y-106529800I-457200J0D01*
G01*
%TO.C,D1*%
X139139500Y-107732600D02*
X139139500Y-108685100D01*
D19*
%TO.C,U8*%
X156338500Y-107156000D02*
X158338500Y-107156000D01*
X156338500Y-108406000D02*
X156338500Y-107156000D01*
X156338500Y-108406000D02*
X158338500Y-108406000D01*
X158338500Y-107156000D02*
X158338500Y-108406000D01*
D16*
%TO.C,JP1*%
X136276600Y-102837400D02*
X136276600Y-101719800D01*
X136733800Y-101262600D02*
X138257800Y-101262600D01*
X138257800Y-103294600D02*
X136733800Y-103294600D01*
X138715000Y-102837400D02*
X138715000Y-101719800D01*
X136276600Y-101719800D02*
G75*
G02*
X136733800Y-101262600I457201J-1D01*
G01*
X136733800Y-103294600D02*
G75*
G02*
X136276600Y-102837400I1J457201D01*
G01*
X138257800Y-101262600D02*
G75*
G02*
X138715000Y-101719800I0J-457200D01*
G01*
X138715000Y-102837400D02*
G75*
G02*
X138257800Y-103294600I-457200J0D01*
G01*
%TO.C,U10*%
X160731540Y-104378809D02*
X164287540Y-104378809D01*
X160731540Y-109966809D02*
X160731540Y-104378809D01*
X164287540Y-104378809D02*
X164287540Y-109966809D01*
X164287540Y-109966809D02*
X160731540Y-109966809D01*
D20*
X160596000Y-103965000D02*
G75*
G02*
X160342000Y-103965000I-127000J0D01*
G01*
X160342000Y-103965000D02*
G75*
G02*
X160596000Y-103965000I127000J0D01*
G01*
D16*
%TO.C,J16*%
X158965000Y-84062600D02*
X159715000Y-84062600D01*
X158965000Y-85712600D02*
X158965000Y-84062600D01*
X160465000Y-88312600D02*
X163465000Y-88312600D01*
X164215000Y-84062600D02*
X164965000Y-84062600D01*
X164965000Y-84062600D02*
X164965000Y-85712600D01*
X159566600Y-83412600D02*
G75*
G02*
X159363400Y-83412600I-101600J0D01*
G01*
X159363400Y-83412600D02*
G75*
G02*
X159566600Y-83412600I101600J0D01*
G01*
D15*
%TO.C,J12*%
X118558000Y-73600000D02*
X126298000Y-73600000D01*
X118558000Y-76200000D02*
X118558000Y-73600000D01*
X118558000Y-78800000D02*
X118558000Y-77470000D01*
X119888000Y-78800000D02*
X118558000Y-78800000D01*
X121158000Y-76200000D02*
X118558000Y-76200000D01*
X121158000Y-78800000D02*
X121158000Y-76200000D01*
X121158000Y-78800000D02*
X126298000Y-78800000D01*
X126298000Y-78800000D02*
X126298000Y-73600000D01*
%TO.C,U12*%
X148010000Y-87776000D02*
X151770000Y-87776000D01*
X148010000Y-94596000D02*
X151770000Y-94596000D01*
X151770000Y-87776000D02*
X151770000Y-89036000D01*
X151770000Y-94596000D02*
X151770000Y-93336000D01*
X146730000Y-87876000D02*
X146490000Y-87546000D01*
X146970000Y-87546000D01*
X146730000Y-87876000D01*
G36*
X146730000Y-87876000D02*
G01*
X146490000Y-87546000D01*
X146970000Y-87546000D01*
X146730000Y-87876000D01*
G37*
%TO.C,J15*%
X169358000Y-87316000D02*
X170688000Y-87316000D01*
X169358000Y-88646000D02*
X169358000Y-87316000D01*
X169358000Y-89916000D02*
X169358000Y-95056000D01*
X169358000Y-89916000D02*
X171958000Y-89916000D01*
X169358000Y-95056000D02*
X174558000Y-95056000D01*
X171958000Y-87316000D02*
X174558000Y-87316000D01*
X171958000Y-89916000D02*
X171958000Y-87316000D01*
X174558000Y-87316000D02*
X174558000Y-95056000D01*
%TO.C,J13*%
X124400000Y-69910000D02*
X124400000Y-68580000D01*
X125730000Y-69910000D02*
X124400000Y-69910000D01*
X127000000Y-67250000D02*
X149920000Y-67250000D01*
X127000000Y-69910000D02*
X127000000Y-67250000D01*
X127000000Y-69910000D02*
X149920000Y-69910000D01*
X149920000Y-69910000D02*
X149920000Y-67250000D01*
%TD*%
M02*
